<?xml version="1.0" encoding="utf-8"?>
<!-- Generator: Adobe Illustrator 25.1.0, SVG Export Plug-In . SVG Version: 6.00 Build 0)  -->
<svg version="1.1" id="Ebene_1" xmlns="http://www.w3.org/2000/svg" xmlns:xlink="http://www.w3.org/1999/xlink" x="0px" y="0px"
	 viewBox="0 0 361 228" style="enable-background:new 0 0 361 228;" xml:space="preserve">
<style type="text/css">
	.st0{fill:#FFFFFF;}
	.st1{fill:#013154;}
	.st2{fill:#D7005F;}
</style>
<g transform="translate(0 85)">
	<g>
		<path class="st0" d="M210.9,18.2h5.6c3.5,0,5,0.7,5.6,3.3h17.4c0,0,0.4-5.2-3.5-7.7c-2.5-1.7-7.1-1.7-13.9-1.7h-17.3
			c-5.7,0-11-0.5-13.6,1.5c-2.1,1.6-3.7,3.6-3.7,6.4v19.9c0.1,2.6,1.5,5,3.7,6.4c2.9,2,7.9,1.6,13.6,1.5h17.3
			c4.2,0,7.9,0.2,11.7-0.8c3.2-0.9,5.5-3.8,5.6-7.2V26.1h-26v6.5h8.7v4.2c0,2.4-0.3,4.6-4.5,4.6h-4.4c-2.4,0-4.5,0.1-5.7-0.5
			c-1.5-0.8-1.8-1.6-1.8-3.5V21.6C205.7,19.4,207.1,18.2,210.9,18.2z"/>
		<path class="st0" d="M172.9,13c-3.2-1.4-7.7-1.1-11.7-1.1h-34.4v35.9H145V32.7h8.1c2.8,0,3.9-0.1,5.7,0.4c1.6,0.4,1.5,2.2,1.5,3.3
			v11.3h18.2V34.8c-0.1-1.7-1.1-3.2-2.6-4c-1.9-0.9-4-1.3-6.1-1.2h-7.4c6.2,0,9.5-0.3,12.1-1.9c2.7-1.7,4-3.2,4-6.3v-1
			C178.5,16.5,176.6,14.6,172.9,13z"/>
		<polygon class="st0" points="76.7,11.9 76.7,47.7 118.6,47.7 118.6,38.1 94.9,38.1 94.9,11.9 		"/>
		<path class="st0" d="M49.2,11.9H14.6v35.8h34.6c4.8,0,9.9,0.4,13.3-1.2s4-5.7,4-7.9V21.1c0-2.2-0.6-6.3-4-7.9S53.9,11.9,49.2,11.9
			z"/>
	</g>
	<g>
		<path class="st1" d="M159,18.8c-1.7-0.8-3.6-0.6-6.1-0.6H145V26h7.9c3,0,4.3,0.2,6.1-0.5c2-0.8,1.8-2.6,1.8-3.4
			S161.1,19.8,159,18.8z"/>
		<path class="st1" d="M251,20.2c0.2-2.3,0.6-6,0.5-6.9c-0.3-2.3-2.1-4.7-4-6.9c-2.3-2.5-4.4-3.4-6.9-5.5H0v58.3h14.5L70.7,48
			l-2.8,11.3h96.7c0.9-0.5,1.3-0.6,2.1-1c1-0.5,2.1-1,3.1-1.3c1.5-0.4,3-0.6,4.6-0.6c0.9-0.1,1.8,0.3,2.4,0.9c0.4,0.6,0.7,1.3,0.9,2
			h5.5l0.5-0.9c0.6-1,0.9-1.8,1.9-1.8c5.1,0,9.8-0.1,15.2,0c0.5-0.1,0.9,0.1,1.2,0.5c0.6,0.9,0.8,1.4,1.3,2.2l17.7-0.1
			c0.8-1.8,1.2-2.8,2.3-4.9c0-0.1,0-0.1,0-0.1c0.1,0,0.1,0,0.2-0.1c4.2-1.8,9.3-3.9,13.9-6c0.2-0.1,0.4-0.2,0.6-0.1
			c0.9,0.3,1.9,0.6,2.3,0.8c0.3,0.1,0.3,0.3,0.4-0.2c1.2-4.2,2.7-8.4,4.3-12.5l6.2-11.2C250.8,23.5,251.1,21.8,251,20.2L251,20.2z
			 M66.5,38.6c0,2.2-0.6,6.3-4,7.9s-8.5,1.2-13.3,1.2H14.6V11.9h34.6c4.7,0,9.9-0.3,13.3,1.3s4,5.7,4,7.9V38.6z M118.6,47.7H76.7
			V11.9h18.2v26.2h23.7L118.6,47.7z M169.8,29.6c2.1-0.1,4.2,0.3,6.1,1.2c1.5,0.8,2.5,2.3,2.6,4v12.9h-18.2V36.4
			c0-1.1,0.1-2.9-1.5-3.3c-1.8-0.5-2.9-0.4-5.7-0.4H145v15.1h-18.2V11.9h34.4c4,0,8.5-0.3,11.7,1.1c3.7,1.6,5.6,3.5,5.6,7.4v1
			c0,3.1-1.3,4.6-4,6.3c-2.6,1.6-5.9,1.9-12.1,1.9H169.8z M239.5,21.5h-17.4c-0.6-2.6-2.1-3.3-5.6-3.3h-5.6c-3.8,0-5.2,1.2-5.2,3.4
			v15.8c0,1.9,0.3,2.7,1.8,3.5c1.2,0.6,3.3,0.5,5.7,0.5h4.4c4.2,0,4.5-2.2,4.5-4.6v-4.2h-8.7v-6.5h26v13.7c-0.1,3.4-2.4,6.3-5.6,7.2
			c-3.8,1-7.5,0.8-11.7,0.8h-17.3c-5.7,0.1-10.7,0.5-13.6-1.5c-2.2-1.4-3.6-3.8-3.7-6.4V20c0-2.8,1.6-4.8,3.7-6.4
			c2.6-2,7.9-1.5,13.6-1.5h17.3c6.8,0,11.4,0,13.9,1.7C239.9,16.3,239.5,21.5,239.5,21.5L239.5,21.5z"/>
		<path class="st1" d="M46.7,22.1c-2.3-0.9-3.9-0.6-6.2-0.7h-7.8v16.7h7.8c2.3,0,3.9,0.3,6.2-0.7c1.8-0.7,1.6-3.4,1.6-4.5v-6.5
			C48.3,25.5,48.5,22.8,46.7,22.1z"/>
	</g>
</g>
<g transform="translate(3 106)">
	<path class="st2" d="M137,45.5c2.5,1.2,5.1,2.2,7.3,4c-1,5-2.3,9.9-3.4,15.1c-1.1,4.5-2.2,9.2-3.3,13.8l-1.7,7
		c-0.8,3.5-1.7,7-2.5,10.4c-0.6,0.9-0.8,2.1-1,3.3l-0.1,0.4c-0.3,1.7-0.7,3.4-2.7,3.8c-2.9,1-5.6,2.5-8.6,3.3
		c-1.6-0.4-2.6-2.2-4.1-2.9c-3.2-2.7-6.7-4.9-9.8-7.9c3.1-1,6.1-2,9.4-2.8c2.1,0,2.8,2.3,4.3,3s1.8,2.1,3.5,2.1l1-1.2
		c1.2-5.2,2.9-10.2,3.7-15.5c0.6-3.3,2.2-6.3,2.1-9.7c-0.3-0.7-1.1-1-1.8-0.7h-0.1c-3.8,1.1-7.2,2.8-10.9,4c-2.3-2-4.3-4.3-6-6.8
		c0.6-4.3,1.6-8.3,2.7-12.4l0.6-2.2c0.5-1.8,1-3.7,1.4-5.5c0.3-1.3,1.3-2.2,2.6-2.4c2.5,0.3,4.7,1.6,7.1,2.2
		c2.3,1.2,4.8,1.5,7.3,2.6c1.6-0.1,2-1.4,2.2-2.7l0.1-0.4C136.5,46.7,136.7,46,137,45.5L137,45.5z M92.3,54.6c0.9,0.2,2-0.2,2.9,0.3
		c-0.8,4.7-1.6,9.2-2.3,13.9c0.1,1.7,1.3,2.2,2.6,2.6l0.4,0.1c0.7,0.2,1.4,0.4,2,0.8c2.7,0.8,4.6-0.8,6.6-2.4l0.4-0.3
		c1-0.8,2.1-1.6,3.3-1.9c0.4,0.1,0.6,0.6,0.9,0.9l-0.5,0.9c-2.2,2.9-4.1,6.5-6.9,9.2c-3.5,1.4-7.1,0.6-10.8,1
		c-1.3-2.2-1.8-4.4-3.4-6.4c-0.5-0.3-1.2-0.3-1.7,0c-3,2.8-5.3,7-8.6,9.3c-3.8,0.9-7.7,1.5-11.6,1.8c-2.5-2.6-5-4.1-6.9-6.9
		c1-7.3,3.4-13.7,4.6-21c2.9,0,5.5-0.5,8.5-0.1c-0.4,3.8-2.2,7.9-3,11.8c-0.1,0.8-0.4,1.6-0.7,2.5L68,71c-0.7,2.2-1.4,4.5,1,5.9
		c3,0.9,7.4,2.2,9.8-0.9c3.5-6.6,5.3-14.2,8.8-20.9C89,54.1,90.6,55.1,92.3,54.6L92.3,54.6z M171,39.2l0.4,1.6l0.6,12.4l-0.3,0.9
		c-4,2.5-7.8,5.1-11.5,8c-0.5,0.6-0.7,1.4-0.3,2.1c2.4,1.6,4.4,3.8,7.2,4.9c1.9-0.3,2.4-2.2,3.8-3.3c1.3-1,2-2.6,3.5-3.6
		c0.9,0.6,1.8,1.4,2.4,2.3c-0.7,1.8-2.5,2.7-3.6,4.2c-0.4,0.3-0.7,0.6-1,1l-0.5,0.5c-0.6,0.7-1.3,1.4-2.3,1.6
		c-4.7,0.5-8.6,1.2-13.4,1c-3.9-2.8-6.2-6.4-8.9-9.7l0.2-1.1c5.1-6.9,10.1-14.7,16.7-20.6C166.2,40.1,168.3,38.8,171,39.2L171,39.2z
		 M252.8,2.9l0.6,0.1l7.2,6.9c0.2,0.9-0.6,1.6-0.9,2.3c-2.8,6-6.6,12.1-8.5,18.6c-2.2,5.1-2.9,10.8-3.9,16.4
		c-0.7,1.2,0.1,2.4-0.3,3.8c0,0.5,0,1,0,1.5v0.4c0,1.7,0,3.5,1.8,4c4.8-1.8,8.5-4.7,13.2-6.9c0.5,0.5,1.6,0.7,2,1.6l0.2,0.5
		c-6.5,4.6-13.5,7.6-20.2,11.3c-0.8-0.1-1-1.1-1.1-1.8c-1-2.9-1.8-5.8-2.4-8.7c-0.3-0.5-0.7-0.9-1.3-1c-1.7,0.2-2.5,2.2-3.9,3
		c-3.9,3.4-8.1,6.3-12.4,9.4c-0.9,0.1-2.4,0.7-3-0.2l-0.2-5.4c-0.4-0.9-1.5-1.3-2.4-0.9c-3.8,2.8-7.1,5.5-10.8,8.5
		c-1.9,0.8-4,0.9-6,0.3c-1.1-5.6-2-11.3-3.5-16.8c-0.6-1-1.1-2.2-2.3-2.7c-2.4,0.7-1.9,3.6-3.1,5.4c-1.5,4.2-3.3,8.4-5.3,12.4
		c-1.5,0.3-2,1.9-3.6,2.1c-0.3-2.1,0.2-4.3,0.3-6.5c-0.5-2.5,0.6-5.2,0.3-7.6c0.1-3.9,1-7.3,0.9-11.3h0.1c-0.2-0.6,0.3-2,0.5-2.9
		c3.7,0.3,7.4,0.1,11.1,0.5c-0.2,1.1-0.9,2.2-0.5,3.5c1.1,1.1,2.7,0.7,4.2,0.3l0.4-0.1c0.5-0.1,0.9-0.3,1.4-0.3l0.6,0.6
		c1.6,3.9,3.1,8,4.8,12c0.8,0.9,2.1,1.2,3.3,0.8l5.6-1c1.1-1.7,1.4-3.9,1.9-5.9c1-4.1,2-8.1,4-11.8c1.5-1.4,3.4-1.6,4.9-2.8
		c2.6-1.5,5.4-2.7,8.4-3.5c1.6-0.3,2.5,1.4,4,0.8c1.3-0.9,1.3-3,2.2-4.3C243.9,18.9,248.2,10.7,252.8,2.9L252.8,2.9z M126.3,55.3
		l-5.9,8.8l10.4,1.9l2.1-8.2L126.3,55.3z M164.8,47.5l-6.4,6.8h5.8l1.7-2.8L164.8,47.5z M232.4,39.3l-5.3,7.1l6,0.6L232.4,39.3z"/>
	<path d="M267.6,50.9c-1.7-1.1-3.2-3.3-5.3-3.8c-3.8,2-7.1,4.3-11,5.7l-0.4-0.3c0.1-4.9,0.4-9.8,1-14.7c0,0,1.3-9.5,2.2-9.9
		c0.6-2.1,1.4-4.1,2.4-6c1.1-2.1,2.2-4.3,3-6.6l2.6-5.2c0.3-1,0-2-0.7-2.7l-8.8-7.2c-0.7,0.5-1.3,1.1-1.7,1.9
		c-0.3,0.1-5.5,9.9-8.1,14.4c-1.5,4.1-2.8,8.1-4.1,12.2c-0.9,1.4-2.3-0.4-3.6-0.3l-13.7,5.8c-0.7,1.5-1.4,2.9-2,4.5
		c-1.7,4.6-3.5,9.3-5.6,13.9c-1.6-0.2-3.4,1.1-4.7,0.1c-1-2.7-1.9-5.4-3-8c-0.5-1.7-1.1-3.3-1.8-4.9c-1.9-0.1-3.6,1.3-5.4,1.6
		c-0.4-0.9,0.4-1.6,0.3-2.5c-0.3-0.9-0.4-2.4-1.8-2.2L183,37c-0.7,0.6-1.1,1.4-1.3,2.3c-0.8,5.9-1.2,11.8-1.1,17.8
		c-0.4,2.2-0.2,5-0.5,7.3c-1.4-0.4-1.6-1.6-2.7-2.5c-1.2-0.9-1.9-2.7-3.5-2.6c-2.1,2.2-4,4.4-6.1,6.5l-0.9,0.3
		c-0.9-0.7-2.2-1.1-2.6-2.1c2.1-1.8,4.5-3.4,6.9-4.7c1.5-1.2,4.3-1.2,4.4-3.6c-0.1-4.7-0.6-9.4-1.6-14.1c-0.7-1.7-0.1-4.7-2.4-5
		c-1.8,0-3.6,0.4-5.3,1.1c-1.4,0.6-3.5,1.4-4.3,2.2c-4.3,4.7-8.9,9.5-12.8,14.5c-1.5,1.8-2.2,4.5-4.2,5.5c0.3-2.4,1.1-4.7,1.4-7.2
		c0.6-1.6,1.5-4,0.2-5.4c-3.1-1.3-6.2-2.9-9.4-4.2c-3.1-1.6-2,2.8-3.5,4.1l-1.7,0.1c-3.7-1.6-7.3-2.8-11.1-4.1
		c-1.7,0.1-3.4,0.6-4.9,1.5c-2.7,6.5-3.4,14-5.9,20.6c-0.6-0.3-1.3-1-2.1-0.6l-7.2,4.7c-1.5,1.1-3.2-0.1-4.5-0.8
		c0.5-5.2,1.2-10.3,1.8-15.3c-1-1.8-3.4-0.2-5-0.8c-3,1.1-8.6-2-9.1,2.9c-0.3,3.5-2.4,6.1-3.5,9.2c-1.9,3.3-2.2,7.3-5.2,9.8
		c-1.3,0.8-3,0.3-4.3,0.2L70.8,74c0.8-5.4,2.7-10.1,4.1-15.2c0-1.7,2-3.9,0.1-5.4c-3.6-0.4-7.6,0.4-11.4,0.5
		c-0.7-0.2-1.5-0.1-2.2,0.3c-1.8,7.2-3.5,14.5-5.2,21.7c-0.2,1.6-0.6,3.8,1,4.6c3.4,2.6,4.9,6.1,8.7,7.6C70,88,74.1,87.7,78.1,87
		c2.5-2.5,5-5.5,7.9-8l0.8-0.3c0.9,1.8,1.3,3.8,2.7,5.3c1.7,0.6,3.8-0.2,5.8-0.2c2.9-0.4,6.1-0.4,9.1-1.1c1.7-3.8,3.9-7.3,6.6-10.5
		c2.1,2,3.9,4.4,5.8,6.6l1,0.4c4,0.3,6-2.9,9.9-2.7c-0.5,3.1-1.2,6.3-2.1,9.3c-0.9,2.9-1,6.2-2.3,8.8c-2-1.4-3.3-3.1-5.4-4.3
		c-5.2,1-10.2,2.8-15.4,4.1c-0.5,0.4-1.2,1-0.9,1.8c3.1,3.1,7,5.6,10.7,8.4c3.1,2,5.4,5,9.1,6.2c3.6-0.4,6.6-2.8,9.7-4.2
		c1.3-0.9,3.7-0.9,3.9-3c2.8-13.1,5.9-25.9,8.8-39l0.3-0.1c3.1,3.9,6.8,7.7,10.2,11.4l1.7,1c4.2-0.1,8.3-0.5,12.4-1.2
		c5.4,0.5,7.9-4.7,11.1-7.5c0.5,0.4,0.2,1.1,0.4,1.7c0.3,0.8,1,1.3,1.8,1.4c2.3-1.4,5-2.2,7.2-4c2-4.5,3.1-9.3,6.2-13.2
		c1.3,4.1,2.1,8.4,2.4,12.7c0.5,1.2,0,3.9,2.2,3.9c3.7-0.4,7-0.4,10.5-1.3c2.6-1.6,4.3-3.8,7-5.2c1.1,1.2-0.1,3.8,1.6,4.7l4.4-0.1
		c4.7-3.8,9.6-7.6,14.6-11.2l0.7-0.1c1.1,3.2,2.2,6.2,3.1,9.4c0.5,1,1,2.5,2.4,2.2c4.7-3.3,9.7-6,14.2-9.4c2.9-2.4,7-4.1,9.8-6.8
		C268.2,52,268.2,51.1,267.6,50.9L267.6,50.9z M108.6,69.4c-2.2,2.9-4.1,6.5-6.9,9.2c-3.5,1.4-7.1,0.6-10.8,1
		c-1.3-2.2-1.8-4.4-3.4-6.4c-0.5-0.3-1.2-0.3-1.7,0c-3,2.8-5.3,7-8.6,9.3c-3.8,0.9-7.7,1.5-11.6,1.8c-2.5-2.6-5-4.1-6.9-6.9
		c1-7.3,3.4-13.7,4.6-21c2.9,0,5.5-0.5,8.5-0.1c-0.4,3.8-2.2,7.9-3,11.8c-0.3,2.8-3.3,6.8,0.2,8.8c3,0.9,7.4,2.2,9.8-0.9
		c3.5-6.6,5.3-14.2,8.8-20.9c1.4-1,3,0,4.7-0.5c0.9,0.2,2-0.2,2.9,0.3c-0.8,4.7-1.6,9.2-2.3,13.9c0.2,2.8,3.3,2.3,5,3.5
		c4.3,1.3,6.6-3.6,10.3-4.7c0.4,0.1,0.6,0.6,0.9,0.9L108.6,69.4z M140.9,64.6c-2.5,10.2-5,20.9-7.5,31.2c-1.6,2.3-0.2,6.7-3.7,7.5
		c-2.9,1-5.6,2.5-8.6,3.3c-1.6-0.4-2.6-2.2-4.1-2.9c-3.2-2.7-6.7-4.9-9.8-7.9c3.1-1,6.1-2,9.4-2.8c2.1,0,2.8,2.3,4.3,3
		s1.8,2.1,3.5,2.1l1-1.2c1.2-5.2,2.9-10.2,3.7-15.5c0.6-3.3,2.2-6.3,2.1-9.7c-0.3-0.7-1.2-1-1.9-0.7c-3.8,1.1-7.2,2.8-10.9,4
		c-2.3-2-4.3-4.3-6-6.8c0.9-7,3.1-13.4,4.7-20.1c0.3-1.3,1.3-2.2,2.6-2.4c2.5,0.3,4.7,1.6,7.1,2.2c2.3,1.2,4.8,1.5,7.3,2.6
		c2.6-0.1,1.9-3.4,2.9-5c2.5,1.2,5.1,2.2,7.3,4C143.3,54.5,142,59.4,140.9,64.6L140.9,64.6z M173.2,68.7c-1.3,1-2,2.8-3.8,3.1
		c-4.7,0.5-8.6,1.2-13.4,1c-3.9-2.8-6.2-6.4-8.9-9.7l0.2-1.1c5.1-6.9,10.1-14.7,16.7-20.6c2.2-1.3,4.3-2.6,7-2.2l0.4,1.6l0.6,12.4
		l-0.3,0.9c-4,2.5-7.8,5.1-11.5,8c-0.5,0.6-0.7,1.4-0.3,2.1c2.4,1.6,4.4,3.8,7.2,4.9c1.9-0.3,2.4-2.2,3.8-3.3c1.3-1,2-2.6,3.5-3.6
		c0.9,0.6,1.8,1.4,2.4,2.3C176.1,66.3,174.3,67.2,173.2,68.7L173.2,68.7z M244,63.4c-0.8-0.1-1-1.1-1.1-1.8c-1-2.9-1.8-5.8-2.4-8.7
		c-0.3-0.5-0.7-0.9-1.3-1c-1.7,0.2-2.5,2.2-3.9,3c-3.9,3.4-8.1,6.3-12.4,9.4c-0.9,0.1-2.4,0.7-3-0.2l-0.2-5.4
		c-0.4-0.9-1.5-1.3-2.4-0.9c-3.8,2.8-7.1,5.5-10.8,8.5c-1.9,0.8-4,0.9-6,0.3c-1.1-5.6-2-11.3-3.5-16.8c-0.6-1-1.1-2.2-2.3-2.7
		c-2.4,0.7-1.9,3.6-3.1,5.4c-1.5,4.2-3.3,8.4-5.3,12.4c-1.5,0.3-2,1.9-3.6,2.1c-0.3-2.1,0.2-4.3,0.3-6.5c-0.5-2.5,0.6-5.2,0.3-7.6
		c0.1-3.9,1-7.3,0.9-11.3h0.1c-0.2-0.6,0.3-2,0.5-2.9c3.7,0.3,7.4,0.1,11.1,0.5c-0.2,1.1-0.9,2.2-0.5,3.5c1.6,1.6,4.1,0.1,6-0.2
		l0.6,0.6c1.6,3.9,3.1,8,4.8,12c0.8,0.9,2.1,1.2,3.3,0.8l5.6-1c1.1-1.7,1.4-3.9,1.9-5.9c1-4.1,2-8.1,4-11.8c1.5-1.4,3.4-1.6,4.9-2.8
		c2.6-1.5,5.4-2.7,8.4-3.5c1.6-0.3,2.5,1.4,4,0.8c1.3-0.9,1.3-3,2.2-4.3c2.8-8.5,7.1-16.7,11.7-24.5l0.6,0.1l7.2,6.9
		c0.2,0.9-0.6,1.6-0.9,2.3c-2.8,6-6.6,12.1-8.5,18.6c-2.2,5.1-2.9,10.8-3.9,16.4c-0.7,1.2,0.1,2.4-0.3,3.8c0.2,2.1-0.6,5.2,1.8,5.9
		c4.8-1.8,8.5-4.7,13.2-6.9c0.5,0.5,1.6,0.7,2,1.6l0.2,0.5C257.7,56.7,250.7,59.7,244,63.4L244,63.4z"/>
	<path class="st2" d="M41.6,109.6c-1.4,3.2-5.1,4.5-7.3,7c-2.2,1.1-5.5,0.5-7.9,0.5c-3.8-0.2-7.5-0.8-11.1-1.9
		c-2.7-1.5-5.5-3.9-8.2-5.6c-2.4-3.4-2-7.8-2.5-12.1c0.2-1-0.2-2,0-2.9c3.1-0.3,5.7,0.8,8.8,0.8l3.1,0.8c0.7,3.5,0.6,7.3,2.8,10
		c3.5,2.6,7.9-0.4,11-1.8c3-4.1,3.7-9.3,5.2-14.2c2.2-6,2.7-12.9,4.3-19.1c0.9-4.8,2-9.7,3.4-14.3c0-2.5,1.5-4.2,0.9-6.8l-0.7-0.6
		c-9.6,1.7-19.3,2.6-28.8,4.4l-3.5,0.3c-0.1-4,0.1-8.3,0.3-12.3c2-0.7,4-1.2,6.1-1.4c8.9-1.9,18-3,26.8-5.3c5.8-1,11.8-2.1,17.5-3.1
		c-1.3,7-3.6,13.9-5.2,20.7c-1.1,4.9-2.9,9.5-3.7,14.3c-1.5,4.5-2.3,9.3-3.7,13.9c-0.9,3.6-1.6,7.1-2.8,10.6"/>
	<g>
		<path d="M17.6,38.5l-8.5,1.9c-0.6,4.7-0.3,9.3-0.9,14.1c0,1-0.3,3.1,1.1,3.5c4.9-0.2,9.7-1.4,14.3-1.6c4.5-0.9,9.4-1.2,14.1-1.8
			c0.8-0.1,1.9-0.5,2.7,0c-0.2,1.9-0.5,3.8-1,5.6c-0.8,1.8-0.3,4-1,5.9c-0.5,3.3-1.9,6.2-2.3,9.5c-1.8,8.5-4.4,16.7-6.8,24.8
			c-0.2,2.1-2.3,2.4-3.8,3.2c-1.4,0.3-3.1,1.4-4.6,0.3c-0.7-1.6-1.3-3.3-1.6-5.1c-0.4-1.4,0.3-3.2-0.9-4.3
			c-5.3-1.6-10.8-1.8-16.3-2.9L1.2,92c-0.7,1.8,0.1,3.5,0.3,5.4c0.8,5,0.7,9.5,2.3,14.2c4.1,3.5,8,7.1,12.9,9.3
			c5.4,0.4,11.1,1,16.8,1c3.8-1.9,6.9-4.6,10.4-7.3c3.9-14.4,7.6-28.9,11.2-43.4L65.7,29L17.6,38.5z M52.9,67
			c-1.5,4.5-2.3,9.3-3.7,13.9c-0.9,3.6-1.6,7.1-2.8,10.6l-4.8,18.1c-1.4,3.2-5.1,4.5-7.3,7c-2.2,1.1-5.5,0.5-7.9,0.5
			c-3.8-0.2-7.5-0.8-11.1-1.9c-2.7-1.5-5.5-3.9-8.2-5.6c-2.4-3.4-2-7.8-2.5-12.1c0.2-1-0.2-2,0-2.9c3.1-0.3,5.7,0.8,8.8,0.8l3.1,0.8
			c0.7,3.5,0.6,7.3,2.8,10c3.5,2.6,7.9-0.4,11-1.8c3-4.1,3.7-9.3,5.2-14.2c2.2-6,2.7-12.9,4.3-19.1c0.9-4.8,2-9.7,3.4-14.3
			c0-2.5,1.5-4.2,0.9-6.8l-0.7-0.6c-9.6,1.7-19.3,2.6-28.8,4.4l-3.5,0.3c-0.1-4,0.1-8.3,0.3-12.3c2-0.7,4-1.2,6.1-1.4
			c8.9-1.9,18-3,26.8-5.3c5.8-1,11.8-2.1,17.5-3.1c-1.3,7-3.6,13.9-5.2,20.7C55.5,57.6,53.7,62.2,52.9,67L52.9,67z"/>
		<path d="M235.2,37.7c-0.8-0.8-2-1.2-3.1-1c-0.7,0.1-1.4,0.6-1.8,1.2l-6.1,10.5c-0.2,0.6-0.2,1.2,0.2,1.7c3.1,0,5.5-1.8,8.4-2.2
			c0.9-0.3,1.5-1.2,1.6-2.2C234.1,42.8,235.8,40.4,235.2,37.7L235.2,37.7z M231.9,45c-1.1,0.6-2.3,0.9-3.5,1.1c0.4-1,3.2-4.1,3.9-5
			C232.6,42.1,231.9,44.1,231.9,45z"/>
		<path d="M166.6,46.6c-0.3-0.8-0.4-1.8-1.3-1.9c-3,1.7-4.7,5-7.2,7.7c-0.9,1.7-3.7,2.6-2.9,4.8c0.3,0.5,0.7,1.1,1.4,1
			c2.8-1.1,5.4-2.8,8.3-3.7C168,53,166,49.5,166.6,46.6z M160.5,53.7c0.5-0.5,1.4-4.3,4.5-3.9C165.7,51.5,161.7,53.7,160.5,53.7z"/>
		<path d="M134,57.5c-2.5-2.2-5.2-4-8.5-4.4c-3.3,1.6-5,5.2-6.6,8.4c-0.4,1.2-0.9,2.9,0.3,3.8c2.9,0.3,5.6,0.9,8.5,1.3
			c1.4-0.3,2.2,1.3,3.7,0.5c1.5-1.6,1.3-4.1,2.1-6C133.8,59.9,134.4,58.7,134,57.5L134,57.5z M130.2,64.3c-2.8-0.3-5.7-0.9-8.5-1
			c1.3-2.2,3.7-3.6,5.7-5.1c1.6,0.4,3.7,1,3.9,2.9C130.9,62.2,131.1,63.7,130.2,64.3L130.2,64.3z"/>
	</g>
</g>
<g transform="translate(193)">
	<g>
		<path class="st0" d="M99.9,18c-3.1,0.7-2.9,4.7-4,8c-2,5.6-4.2,11-6.8,16.3c-3.8,7.4-12.8,12-18.8,11.5c-1.6-0.1-3.1-0.1-4.6,0
			c-0.9,0.3-1.6,1.1-1.7,2c-0.1,1-0.1,2.1,0.1,3.1c0.6,6.4,2.6,14.6,6.8,18.8C70.7,77,71.1,76,71.8,76c0.6,0,2.2,6.4,6.3,5.1
			c1.5-0.5-0.3-2.9,0.8-3.2c1-0.3,1.9,3.5,5.7,3.9c0.1,0,0.1,0,0.1,0c0.6,0,1-0.4,1-1c0-0.4-1.5-3.3-1-3.8c0.8-0.8,3,3.7,5.8,3
			c0.9-0.3,1.6-1.1,1.7-2.1c0-0.4-1.7-1.7-1.1-2.3c0.8-0.8,2.8,1.9,4.7,1.6c0.6,0,1.1-0.2,1.6-0.5c0.7-0.5,1-1.4,0.7-2.2
			c-0.6-1.4-2.7-1.9-2.1-2.9c0.7-1.1,4.2,3.2,6.2,1.3c1.9-1.8-1.3-3.9-0.8-4.7c0.3-0.6,2.4,2.2,4.8,0.8c1.7-1-1.9-3.3-1-4.2
			c0.9-0.8,3.1,3,5.8,1.2c1.9-1.3-1.2-3.8-0.6-4.5c0.8-1,2.6,3.7,5.7,1.9c2.5-1.5-0.7-3.5,0-4.1c0.9-0.8,3.6,4,5.9,3.2
			c4.3-1.4-1.1-4.1,0.1-4.5c1.3-0.5,3.7,3.6,5.9,2.8c3.4-1.2-1.8-4.4-0.1-4.9c0.9-0.3,3.2,4.4,5.8,2.9c2.2-1.3-1.4-4.3-0.6-4.8
			c0.7-0.5,2.4,4.4,5.7,3.3c0.3-0.1,1.8-0.8,1.4-1.9l0,0c-0.6-1.5-15-20.1-19-28.4C117.1,25.5,101.4,17.7,99.9,18z"/>
		<path class="st0" d="M138.8,59.7c-0.7,0-1.4-0.1-2.1-0.3c-0.4,0.8-1,1.4-1.8,1.8c-1.1,0.4-2.3,0.3-3.3-0.3
			c-0.5,1.1-1.3,1.8-2.4,2.2c-1.2,0.4-2.5,0.4-3.7-0.1c-0.5,1-1.4,1.7-2.4,2c-1.4,0.4-2.9,0.1-4.1-0.8c-0.3,0.7-0.9,1.3-1.6,1.7
			c-1.1,0.4-2.3,0.5-3.4,0.2c0,0-0.7,3.4-5.2,2.4c-0.2,3.1-3.9,2.9-3.9,2.9c0.2,1.2-0.2,2.4-1,3.3c-1.1,0.9-2.6,1.2-4,0.8
			c0.1,1.6-0.9,3-2.5,3.5c-1.1,0.3-2.2,0.3-3.2-0.1c-0.4,0.7-1.2,2.4-2.5,2.9s-3.4-0.3-3.4-0.3c-0.4,0-0.1,0.9-0.6,1.5
			c-0.1,0.2-0.6,0.7-0.6,0.7c1.3,1.1,8.7,8.1,14.5,9.4c1.2,0.3,2.3,0.6,3.1-0.9c-0.6-0.8-1.1-1.6-1.6-2.5c0-0.4,0.4-0.3,1,0.1
			c2.6,1.7,6.5,7.7,8.8,7.4c0.7,0,1.4-0.3,1.9-0.8c-1.1-1.4-2.2-2.9-2.1-3.3s0.5-0.2,0.9,0.1c2.2,1.5,5.2,7.9,8,7.7
			c0.6-0.1,1.1-0.4,1.4-1c-1.4-1.5-2.7-3.1-2.7-3.5c0-0.1-0.1-0.4,1,0.1c1.6,0.7,6.7,7.6,8.7,7.3c0.5-0.1,0.9-0.3,1.2-0.7
			c-1-1.1-1.9-2.4-2.7-3.7c0-0.6,0.2-0.7,1,0c3.1,2.8,7.8,8.7,9.7,8.4c0.6-0.1,1.2-0.5,1.5-1.1c-1.7-2.3-2.8-3.7-2.8-4
			c0-0.4,0.2-1,1.2,0c1.6,1.6,4.2,5.4,6.7,7c0.7,0.5,1.5,0.7,2.4,0.7c0.7-0.1,1.4-0.3,2.1-0.7c0.6-0.4,1.1-0.9,0.9-1.2
			c-1.8-1.9-3.6-4.1-3.5-4.7c0-0.3,0.5-0.1,0.8,0.1c2.4,1.6,4.7,4.5,6.8,5.7c0.5,0.4,1.2,0.6,1.8,0.6c0.7-0.1,1.4-0.3,2-0.6
			c0.4-0.2,0.7-0.6,0.8-1c-2.7-2.4-6.5-7.2-4.5-7.1c0.3,0,2.9,3.7,3.3,3.8c3.1,3.2,4.5,3.2,6.1,3.1c0.3,0,0.6-0.2,0.9-0.4l0,0
			c0.6-0.6,0.6-1.5,0.6-1.7c-6.6-7.7-9.7-12.6-14.8-21.2c-6.5-10.8-7.7-15.5-11.5-25.9C139.6,59.5,139.2,59.6,138.8,59.7z"/>
		<path class="st0" d="M80.9,133.1c0-0.1,0-0.9,0.1-1.8c0.1-2.1,0.3-5.2,0.4-5.5c0.9-4.1-1.2-3.7-3.5-4.4c0.1,2.3,0.3,3.3,0.3,9.4
			c0,0.2,0,0.3,0,0.5c-0.5,8.5-12.7,3.8-15.3,12.6c0.8-0.5,1.6-0.8,2.4-1.1c3.2-0.6,6.2-1.4,9.3-2.3c0.5-0.4,1.1-0.6,1.7-0.8
			c0.4,0,0.3,0.2,0.4,0.3c-0.5,0.7-0.9,1.3-1.1,2.1c-0.1,0.7-0.1,1.3,0,2c0.3,2.2,1.1,4.2,2.5,5.9c1.2-1.5,2.1-3.3,2.5-5.2
			c0.2-1.3,0.3-2.6,0.2-3.9v-0.1c0-0.5,0.4-1,1-1c1.2,0.5,2.5,1,3.8,1.4c1.1,0.3,5-0.3,6.5,1.3c0.8,0.8,1,2.5,1.2,2.6
			c1.1-1,1.7-2.4,1.6-3.8c0.2-3.6-11.6-3-13.5-5C80.6,135.5,80.9,133.5,80.9,133.1z"/>
		<path class="st0" d="M80.4,82.8c-1-0.2-1.5,0.9-1.5,0.9c-0.1,0.6,10.7,7.9,15.6,12.1c2.2,2,12.9,10.4,15.1,13.7
			c0.2,0.2,0.3,0.6,0.4,0.9c0,0.5,0,0.9-1,0.9c-0.9-0.5-1.7-1.1-2.4-1.8c-2.4-2.1-5.6-5.1-6.3-4.6c-0.5,0.4,2.1,3,3.1,4.6
			c0.2,0.2,0.3,0.6,0.4,0.9c-0.1,0.5-0.4,0.8-0.9,0.9c-0.7,0-1.6-0.8-2.6-1.8c-1.9-2-3.9-5-4.5-4.6c-0.5,0.4,1.2,2.7,2.5,4.6
			c0.5,0.6,0.9,1.4,1.2,2.2c0,0.4-0.1,0.9-0.8,0.9c-0.6,0-1.7-1.5-2.9-3.1c-1.5-2.1-3.1-4.4-3.5-3.8c-0.3,0.5,0.9,2.2,1.9,3.8
			c0.6,0.8,1.1,1.7,1.4,2.6c0,0.2,0.2,1-0.7,1c-0.7,0-2.1-1.9-3.3-3.6c-1.1-1.6-2.1-3-2.5-2.7c-0.3,0.2,0,1.2,0.5,2.7
			c2.2,5.7,9.3,18.4,12.5,19.1c2.1,0.5,1.3-1,1.3-1c-0.5-1.2-4.4-7.3-4.4-7.7s0.1-0.3,0.1-0.4c1,0.9,3.8,5.3,6.2,8.2
			c1.3,1.5,2.9,2.7,3.8,2.6c1.3-0.2,0.2-1.7,0.2-1.7s-3.7-6-4.8-7.8c-0.1-0.1,0.2-0.3,0.1-0.4c1.5,1.6,6.7,9.1,10.1,11.2
			c0.5,0.4,1,0.6,1.6,0.6c0.4,0,0.9,0.1,1.3-0.3c0.1-0.1,0.2-0.2,0.2-0.3c0.1-0.2,0.1-0.5,0-0.8c-1.1-2.9-4.6-6.6-6.5-8.7
			c-0.1-0.1,0-0.3,0.1-0.4c1.7,1.4,6.8,7,10.6,9.9c1,0.9,2.1,1.5,3.4,1.8c0.4,0,0.8,0,1.1-0.2c0.1,0,0.2-0.1,0.3-0.1
			c0.5-0.3,0.7-1,0.4-1.5c-0.7-1.6-3.6-3.8-5.5-5.7c-0.3-0.2-2.8-2.5-2.2-2.6c1.3,0.9,2.5,1.9,3.6,3c2.1,2,4.4,3.8,6.8,5.4
			c1.8,1.2,3.9,1.8,6.1,1.9c0.1,0,0.1,0,0.1,0c0.9,0,1.5-0.7,1.5-1.6c0-0.1-0.1-0.2-0.1-0.3c-0.8-2.1-9.1-9.1-11.4-11
			c-4.2-3.7-8.6-7.4-12.9-11.2c-9.5-8.4-19.1-17-28.4-25.3C83.9,84.3,81.4,83,80.4,82.8z"/>
		<path class="st0" d="M63,40.6c0,1.2,0.4,2.3,1.1,3.2c1.5,2.2,10.9-3,11.9-5.3c0-2.9-7.9-5.9-7.9-5.9c5.4,1,6.5,2,8.8,3
			c2,0.8,3.8-1.7,3.8-4.2c0-5.8-15.5-10.4-16-10.6c1.1,0,2.2,0.1,3.3,0.2c5.8,1,9.9,3.3,11.7,3.3c0.5,0,1.3-0.9,1.3-2
			c0-1.6-1.5-3.7-2.9-4.8c-8.5-6.4-18.5-8-26.7-9.9c4-0.4,13.5,0.7,13.6,0.7c0.5,0.1,1.1,0.2,1.6,0.4c-0.4-0.6-0.5-1.3-0.3-2
			c0.2-0.5,0.5-1,0.9-1.3c-3.4-1.5-9.4-2.2-15.5-2.1c-6.5,0-11.8,1.9-11.8,5.2c0,5,24.3,4,24.5,25.3C64.5,35.9,63,38.8,63,40.6z"/>
		<path class="st0" d="M71.8,135.6c0.7,0,3.8-0.9,3.8-2.3h-0.1v-1.7v-8.1c0-0.7-0.2-1.4-0.5-2c-0.6,0.4-1.2,0.7-1.9,0.9
			c-0.9,3-1.7,6.1-2.2,9.2c-0.2,0.9-0.3,1.9-0.3,2.8c0,0.4,0,0.8,0.2,1.2H71.8z"/>
		<path class="st0" d="M19.3,27.5c-0.3-0.5-0.8-0.8-1.4-0.9c-0.9,0-0.7,0.6-1.1,1.3l0.4,0.4C17.9,27.9,18.6,27.7,19.3,27.5z"/>
		<path class="st0" d="M5.9,31.8c2.1,0,7.7,1.7,9,2.1c4.9,1.7,10.9,4,15.2,9.4c4.4,5.5,5.9,11.6,8.1,17c1.2,2.8,2.3,5.6,3.2,8.5
			c1.7,4.9,4.9,9.2,9.1,12.2c4,2.6,10.2,4.7,12.9,10c2.8,5.7,3.8,12.3,6.8,18.4c1.4,2.9,3.3,5.6,5.6,7.8c1.1,1.3,2.6,2.1,4.3,2.4
			l0,0c4.2,0.5,6.1-7.2,6.7-10.1v-0.6c0-0.9,0-1.8-0.2-2.7c-0.6-4.5-5.9-11.1-5.9-11.8c0-0.6,1.1-0.8,1.6-0.8c1,0.2,1.9,0.7,2.5,1.5
			c-0.1-1-1.7-3.2-3.1-4.3C72.1,83.3,66.3,77,62.8,65.1c-0.7-2-1.1-4.1-1.4-6.2c-0.1-0.9-0.2-1.8-0.2-2.7c0-1.3-0.1-5.1,2.9-5.1
			c0.4,0,1.1,1,2,0.9c0.8-0.1,0.4-0.9,1.7-1.1c0.4-0.1,1.2,0.8,2,0.7s0.5-1.1,1.7-1.3c1-0.2,1.4,1.2,2.6,0.8
			c0.9-0.3,0.3-1.8,1.1-2.2c1.1-0.6,1.9,1.2,2.8,0.6c0.9-0.5-0.4-2.3,0.6-2.9c1.4-0.9,2.1,0.7,3.1,0c0.9-0.6-1-2.3,0.2-3.2
			c1.5-1.2,2,1.1,3.2-0.2c1-1.1-1.2-3.2-0.7-4.1c1-1.7,3.2,0.2,3.8-1.2c0.6-1.4-1.7-2.4-1.4-3.5c0.6-1.9,2.6-0.2,3.2-1.4
			c1-2.1-2.2-3.5-2-4.5c0.3-1.6,2.9-0.1,3.3-1.1c0.7-2.1-3.4-3.6-3.4-4.5c0-1.2,2.1-0.5,2.7-1.6c1.4-2.2-5.1-3.1-4.8-4.6
			c0.3-1.8,4.2,0,4.6,0c0.5,0,2.6,0,2.7-1.1c0.3-3-13.5-5.3-13.5-6.4c0-1.2,1.8-1,2.1-1c14.2,1.9,40.7,20.4,42.4,16.2
			c0.1-0.4-0.3-1-0.6-1.2C110.4,13.8,91.3,3.4,77.4,3c-3.4-0.1-8.2,1.7-8.2,4.9c0,3.3,16.5,3.2,16.5,18c0,12.5-15,21.9-22,21.5
			c-3.5-0.2-4-5.3-5-5.8c-3.2-1.7-9.5-4.9-13.8-8.6c-7.6-6.5-11.5-7.9-12.3-7.9c-0.4,0-2.4,0.6-2.8,0.6s-0.7-0.2-1-0.4
			c0.9-1.2,1.8-2.4,2.9-3.5c-1.2-0.3-2.3-0.4-3.5-0.5c-3.7-0.1-8.3,0-8.3,0c-1.8,0-5.9,2.6-6.8,4.5c-1.3,2.5-10.8-0.4-10.6,5.3
			c0,0.6,0,1.2,0.2,1.8C4.5,32.1,4.2,31.8,5.9,31.8z M18.9,25c2.4,0.1,4.8,0.4,7.2,0.9v0.7c-0.9,1-2.4,0.8-3.5,1.4
			c-0.7,0.4-1.6,2.4-2.8,2.4h-2.1c-0.2,0.9-0.2,1.8,0,2.7l-0.4,0.4c-1.6-1.4-2.5-3.3-2.7-5.4C14.6,26,17.4,24.9,18.9,25z"/>
	</g>
	<g>
		<path d="M14.6,28.1c0.2,2.1,1.1,4,2.7,5.4l0.4-0.4c-0.2-0.9-0.2-1.8,0-2.7h2.1c1.2,0,2.1-2,2.8-2.4c1.1-0.6,2.6-0.4,3.5-1.4v-0.7
			c-2.4-0.5-4.8-0.8-7.2-0.9C17.4,24.9,14.6,26,14.6,28.1z M19.3,27.5c-0.7,0.2-1.4,0.4-2.1,0.8l-0.4-0.4c0.4-0.7,0.2-1.3,1.1-1.3
			C18.5,26.7,19,27,19.3,27.5z"/>
		<path d="M167.7,105.9c-1.7-3.3-7-7.2-16-23.9c-4.3-7.8-7.9-15.9-10.6-24.4c0.3-0.5,0.6-1,0.7-1.6c0-1.8-3.4-6.1-3.8-6.7
			c-4.9-7.1-16.9-21.9-14.5-22.1c1.5,0,2.8-1.2,3-2.7c0-2.8-10.5-8.7-10.7-8.8c-11.4-6-23.6-13.5-35.4-14.8c-1.4-0.1-2.7-0.1-4.1,0
			c-2.7,0.2-5.2,1-7.6,2.2C62.5,1.6,57.4,0.4,50.3,1c-6.4,0.5-13.2,1.6-13.2,7.8c0,8.6,23.1,5.9,23.1,24.7c0,1.8-0.3,3.5-0.9,5.2
			c0,0-3.6-0.3-8.9-3.7c-7.7-5-14-10.3-15.7-11.4c0.9-1.4,1.6-3,2-4.6c0-0.4-4.1-0.1-6.8-0.2c-3.4-0.1-8.7-0.3-8.7-0.3
			c-2.3,0.2-4.7,0.5-6.8,2.1c-1.2,0.9-1.8,2.5-3,3.1C6.6,26.2,0.3,23.4,0.3,31c0,0.5,0,4.7,1.7,4.7c0.4,0,2.5-1.8,2.9-1.8h2.2
			c1.4,0,10.2,3.5,11.4,4.2c2.7,1.4,5,3.3,7,5.6C33.4,53.5,32.8,63.8,38,74c1.6,3.4,3.7,6.5,6.2,9.3c3.8,3.8,13.7,10.9,13.7,16.6
			c0,0.4-1,5.9-1,6.3c0,1.1,0.2,2.2,0.4,3.2c0.1,0.5,0.1,0.9,0.4,1.3c0,0,0.5-0.8,1-1.7c0.3-0.6,0.7-1.1,1-1.7s0.8-1.1,0.9-1.3
			c0.1,0,0.8-1.1,1.8-1.1s2.3,1.6,2.6,1.8c1.4,1.1,2.2,1.8,3.1,2.6c1.9,1.7,3,2.7,4,3.5c2.3,3-0.1,4.6-2.2,9.4c0,0,0,0,0.1,0.1
			c0.6,0.3,0.4,1.4-0.3,6.2c-0.2,1-0.3,2-0.4,2.9c-0.1,1.3-0.5,2.7-1,3.9c-0.6,1-1.3,1.2-2.2,1.9c-1,0.8-1.4,1-2.5,2.1
			c0,0,0,0,0-0.1c-0.1,0.2-0.8,4.2-0.8,4.4v0.5c2.5-9.1,14.9-4.2,15.4-12.8c0-0.2,0-0.3,0-0.5c0-6.1-0.2-7.1-0.3-9.4
			c2.3,0.7,4.4,0.3,3.5,4.4c-0.1,0.3-0.3,3.4-0.4,5.5c-0.1,0.9-0.1,1.7-0.1,1.8c0,0.4-0.3,2.4,0.5,3.2c1.9,2,13.7,1.4,13.5,5
			c0.1,1.4-0.5,2.8-1.6,3.8c-0.2-0.1-0.4-1.8-1.2-2.6c-1.5-1.6-5.4-1-6.5-1.3c-1.3-0.4-2.6-0.9-3.8-1.4c-0.6,0-1,0.5-1,1v0.1
			c0.1,1.3,0,2.6-0.2,3.9c-0.4,1.9-1.3,3.7-2.5,5.2c-1.4-1.7-2.2-3.7-2.5-5.9c-0.1-0.7-0.1-1.3,0-2c0.2-0.8,0.6-1.4,1.1-2.1
			c-0.1-0.1,0-0.3-0.4-0.3c-0.6,0.2-1.2,0.4-1.7,0.8c-3.1,0.9-6.1,1.7-9.3,2.3c-0.9,0.3-1.8,0.7-2.6,1.2v-0.1v0.1
			c0,0.8-0.2,2.1-0.2,2.1s1.9-0.7,4.3-1.4c2.1-0.6,4.2-1.1,6.4-1.4c-0.4,3.3,3.4,10,4.4,10c2.7,0,6-10.6,6-10.6H84
			c3.1,0.9,7.2-1,8.6,3.7c2.2-0.4,3.8-2.3,3.9-4.5c0.1-0.9-0.1-1.8-0.5-2.6c-1.6-3.3-9.2-2.3-12.4-4.5c-0.6-0.4-0.7-1.8-0.6-3.7
			c0.2-3.4,1-8.2,1.3-10.8c1.1-1,2.2-2.1,3.2-3.2c0.6-0.7,1.9-2.8,1.9-2.8c0.6,0.8,1.2,1.6,1.6,2.5c4,6,7.2,13.2,12,13.3
			c0.7,0,1.4-0.4,1.9-0.9c0.5,0.7,1.2,1.4,2,1.8c0.6,0.4,1.3,0.6,2,0.6c0.6,0,1.2-0.2,1.7-0.6c0.1-0.1,0.2-0.1,0.3-0.2
			c0,0.1,0.1,0.1,0.1,0.2c1.4,1.8,3.5,2.8,5.8,2.8c1.2,0.1,2.4-0.5,3.1-1.5c1.3,1.2,4.5,3,5.9,3s3.2-0.7,3.6-2.3
			c1,0.5,5.2,2.4,6.7,2.4c1.4,0,4.6-0.6,4.6-3.5c0-0.3,0-0.7-0.1-1c-1.2-5-10.7-10.9-13.5-13.3c-3.5-3-7.1-5.9-10.7-8.8
			c-0.9-0.8-1.8-1.5-2.7-2.3c-2.6-2.3-5.4-4.9-8-7.5c-2.5-2.5-4.9-4.1-7.3-6.5c1.6,0.7,3.4,1.6,4.8,1.4c0.8-0.1,1.6-0.5,2.1-1.1
			c2.2,1.7,3.3,5,7.6,5.4c0.8-0.1,1.6-0.4,2.3-0.9c2,2.4,3.8,5.2,6.7,4.7c0.7-0.2,1.4-0.6,1.8-1.2c1.5,1.6,4.7,4.8,6.3,4.2
			s1.3-0.5,2-1.1c1.9,1.7,3.9,4.7,7,4.8h0.3h0.2c0.9-0.2,1.6-0.7,2.2-1.3c0.5,0.5,0.9,0.9,1.3,1.3c1.1,1.4,2.8,2.3,4.7,2.4
			c2.3,0.2,4.6-2.1,4.8-2c1.6,0.7,3.3,2.1,5.7,1.7c1.3-0.2,2.4-1,3-2.1c0.1-0.1,0.1-0.2,0.2-0.3c0.3,0.1,0.7,0.2,1,0.3
			c1.2,0.4,2.6,0.5,3.8,0.2c0.1,0,0.2-0.1,0.3-0.2C167.2,109,168.5,107.6,167.7,105.9L167.7,105.9z M140.2,55.4
			c0.4,1.1-1.1,1.8-1.4,1.9c-3.3,1.1-5-3.8-5.7-3.3c-0.8,0.5,2.8,3.5,0.6,4.8c-2.6,1.5-4.9-3.2-5.8-2.9c-1.7,0.5,3.5,3.7,0.1,4.9
			c-2.2,0.8-4.6-3.3-5.9-2.8c-1.2,0.4,4.2,3.1-0.1,4.5c-2.3,0.8-5-4-5.9-3.2c-0.7,0.6,2.5,2.6,0,4.1c-3.1,1.8-4.9-2.9-5.7-1.9
			c-0.6,0.7,2.5,3.2,0.6,4.5c-2.7,1.8-4.9-2-5.8-1.2c-0.9,0.9,2.7,3.2,1,4.2c-2.4,1.4-4.5-1.4-4.8-0.8c-0.5,0.8,2.7,2.9,0.8,4.7
			c-2,1.9-5.5-2.4-6.2-1.3c-0.6,1,1.5,1.5,2.1,2.9c0.3,0.8,0,1.7-0.7,2.2c-0.5,0.3-1,0.5-1.6,0.5c-1.9,0.3-3.9-2.4-4.7-1.6
			c-0.6,0.6,1.1,1.9,1.1,2.3c-0.1,1-0.8,1.8-1.7,2.1c-2.8,0.7-5-3.8-5.8-3c-0.5,0.5,1,3.4,1,3.8c0,0.6-0.4,1-1,1c0,0,0,0-0.1,0
			c-3.8-0.4-4.7-4.2-5.7-3.9c-1.1,0.3,0.7,2.7-0.8,3.2C74,82.4,72.4,76,71.8,76c-0.7,0-1.1,1-0.9,1.7c-4.2-4.2-6.2-12.4-6.8-18.8
			c-0.2-1-0.2-2.1-0.1-3.1c0.1-0.9,0.8-1.7,1.7-2c1.5-0.1,3-0.1,4.6,0c6,0.5,15-4.1,18.8-11.5c2.6-5.3,4.8-10.7,6.8-16.3
			c1.1-3.3,0.9-7.3,4-8c1.5-0.3,17.2,7.5,21.3,9C125.2,35.3,139.6,53.9,140.2,55.4L140.2,55.4z M39.9,8.5c0-3.3,5.3-5.2,11.8-5.2
			c6.1-0.1,12.1,0.6,15.5,2.1c-0.4,0.3-0.7,0.8-0.9,1.3c-0.2,0.7-0.1,1.4,0.3,2c-0.5-0.2-1.1-0.3-1.6-0.4c-0.1,0-9.6-1.1-13.6-0.7
			c8.2,1.9,18.2,3.5,26.7,9.9c1.4,1.1,2.9,3.2,2.9,4.8c0,1.1-0.8,2-1.3,2c-1.8,0-5.9-2.3-11.7-3.3c-1.1-0.1-2.2-0.2-3.3-0.2
			c0.5,0.2,16,4.8,16,10.6c0,2.5-1.8,5-3.8,4.2c-2.3-1-3.4-2-8.8-3c0,0,7.9,3,7.9,5.9c-1,2.3-10.4,7.5-11.9,5.3
			c-0.7-0.9-1.1-2-1.1-3.2c0-1.8,1.5-4.7,1.4-6.8C64.2,12.5,39.9,13.5,39.9,8.5z M75.6,133.3c0,1.4-3.1,2.3-3.8,2.3h-1
			c-0.2-0.4-0.2-0.8-0.2-1.2c0-0.9,0.1-1.9,0.3-2.8c0.5-3.1,1.3-6.2,2.2-9.2c0.7-0.2,1.3-0.5,1.9-0.9c0.3,0.6,0.5,1.3,0.5,2v8.1
			L75.6,133.3L75.6,133.3z M80.1,119.6c-1.7-0.3-3.2-1.1-4.3-2.4c-2.3-2.2-4.2-4.9-5.6-7.8c-3-6.1-4-12.7-6.8-18.4
			c-2.7-5.3-8.9-7.4-12.9-10c-4.2-3-7.4-7.3-9.1-12.2c-0.9-2.9-2-5.7-3.2-8.5c-2.2-5.4-3.7-11.5-8.1-17c-4.3-5.4-10.3-7.7-15.2-9.4
			c-1.3-0.4-6.9-2.1-9-2.1c-1.7,0-1.4,0.3-3.2,1.1c-0.2-0.6-0.2-1.2-0.2-1.8c-0.2-5.7,9.3-2.8,10.6-5.3c0.9-1.9,5-4.5,6.8-4.5
			c0,0,4.6-0.1,8.3,0c1.2,0.1,2.3,0.2,3.5,0.5c-1.1,1.1-2,2.3-2.9,3.5c0.3,0.2,0.6,0.4,1,0.4s2.4-0.6,2.8-0.6
			c0.8,0,4.7,1.4,12.3,7.9c4.3,3.7,10.6,6.9,13.8,8.6c1,0.5,1.5,5.6,5,5.8c7,0.4,22-9,22-21.5c0-14.8-16.5-14.7-16.5-18
			c0-3.2,4.8-5,8.2-4.9c13.9,0.4,33,10.8,46.1,20.2c0.3,0.2,0.7,0.8,0.6,1.2c-1.7,4.2-28.2-14.3-42.4-16.2c-0.3,0-2.1-0.2-2.1,1
			c0,1.1,13.8,3.4,13.5,6.4c-0.1,1.1-2.2,1.1-2.7,1.1c-0.4,0-4.3-1.8-4.6,0c-0.3,1.5,6.2,2.4,4.8,4.6c-0.6,1.1-2.7,0.4-2.7,1.6
			c0,0.9,4.1,2.4,3.4,4.5c-0.4,1-3-0.5-3.3,1.1c-0.2,1,3,2.4,2,4.5c-0.6,1.2-2.6-0.5-3.2,1.4c-0.3,1.1,2,2.1,1.4,3.5
			s-2.8-0.5-3.8,1.2c-0.5,0.9,1.7,3,0.7,4.1c-1.2,1.3-1.7-1-3.2,0.2c-1.2,0.9,0.7,2.6-0.2,3.2c-1,0.7-1.7-0.9-3.1,0
			c-1,0.6,0.3,2.4-0.6,2.9c-0.9,0.6-1.7-1.2-2.8-0.6c-0.8,0.4-0.2,1.9-1.1,2.2c-1.2,0.4-1.6-1-2.6-0.8c-1.2,0.2-0.9,1.2-1.7,1.3
			s-1.6-0.8-2-0.7c-1.3,0.2-0.9,1-1.7,1.1c-0.9,0.1-1.6-0.9-2-0.9c-3,0-2.9,3.8-2.9,5.1c0,0.9,0.1,1.8,0.2,2.7
			c0.3,2.1,0.7,4.2,1.4,6.2c3.5,11.9,9.3,18.2,18.9,25.7c1.4,1.1,3,3.3,3.1,4.3c-0.6-0.8-1.5-1.3-2.5-1.5c-0.5,0-1.6,0.2-1.6,0.8
			c0,0.7,5.3,7.3,5.9,11.8c0.2,0.9,0.2,1.8,0.2,2.7v0.6C86.2,112.4,84.3,120.1,80.1,119.6L80.1,119.6z M113.2,109.5
			c4.3,3.8,8.7,7.5,12.9,11.2c2.3,1.9,10.6,8.9,11.4,11c0,0.1,0.1,0.2,0.1,0.3c0,0.9-0.6,1.6-1.5,1.6c0,0,0,0-0.1,0
			c-2.2-0.1-4.3-0.7-6.1-1.9c-2.4-1.6-4.7-3.4-6.8-5.4c-1.1-1.1-2.3-2.1-3.6-3c-0.6,0.1,1.9,2.4,2.2,2.6c1.9,1.9,4.8,4.1,5.5,5.7
			c0.3,0.5,0.1,1.2-0.4,1.5c-0.1,0-0.2,0.1-0.3,0.1c-0.3,0.2-0.7,0.2-1.1,0.2c-1.3-0.3-2.4-0.9-3.4-1.8c-3.8-2.9-8.9-8.5-10.6-9.9
			c-0.1,0.1-0.2,0.3-0.1,0.4c1.9,2.1,5.4,5.8,6.5,8.7c0.1,0.3,0.1,0.6,0,0.8c0,0.1-0.1,0.2-0.2,0.3c-0.4,0.4-0.9,0.3-1.3,0.3
			c-0.6,0-1.1-0.2-1.6-0.6c-3.4-2.1-8.6-9.6-10.1-11.2c0.1,0.1-0.2,0.3-0.1,0.4c1.1,1.8,4.8,7.8,4.8,7.8s1.1,1.5-0.2,1.7
			c-0.9,0.1-2.5-1.1-3.8-2.6c-2.4-2.9-5.2-7.3-6.2-8.2c0,0.1-0.1,0-0.1,0.4s3.9,6.5,4.4,7.7c0,0,0.8,1.5-1.3,1
			c-3.2-0.7-10.3-13.4-12.5-19.1c-0.5-1.5-0.8-2.5-0.5-2.7c0.4-0.3,1.4,1.1,2.5,2.7c1.2,1.7,2.6,3.6,3.3,3.6c0.9,0,0.7-0.8,0.7-1
			c-0.3-0.9-0.8-1.8-1.4-2.6c-1-1.6-2.2-3.3-1.9-3.8c0.4-0.6,2,1.7,3.5,3.8c1.2,1.6,2.3,3.1,2.9,3.1c0.7,0,0.8-0.5,0.8-0.9
			c-0.3-0.8-0.7-1.6-1.2-2.2c-1.3-1.9-3-4.2-2.5-4.6c0.6-0.4,2.6,2.6,4.5,4.6c1,1,1.9,1.8,2.6,1.8c0.5-0.1,0.8-0.4,0.9-0.9
			c-0.1-0.3-0.2-0.7-0.4-0.9c-1-1.6-3.6-4.2-3.1-4.6c0.7-0.5,3.9,2.5,6.3,4.6c0.7,0.7,1.5,1.3,2.4,1.8c1,0,1-0.4,1-0.9
			c-0.1-0.3-0.2-0.7-0.4-0.9c-2.2-3.3-12.9-11.7-15.1-13.7c-4.9-4.2-15.7-11.5-15.6-12.1c0,0,0.5-1.1,1.5-0.9s3.5,1.5,4.4,1.4
			C94.1,92.5,103.7,101.1,113.2,109.5L113.2,109.5z M165.7,108c-0.3,0.2-0.6,0.4-0.9,0.4c-1.6,0.1-3,0.1-6.1-3.1
			c-0.4-0.1-3-3.8-3.3-3.8c-2-0.1,1.8,4.7,4.5,7.1c-0.1,0.4-0.4,0.8-0.8,1c-0.6,0.3-1.3,0.5-2,0.6c-0.6,0-1.3-0.2-1.8-0.6
			c-2.1-1.2-4.4-4.1-6.8-5.7c-0.3-0.2-0.8-0.4-0.8-0.1c-0.1,0.6,1.7,2.8,3.5,4.7c0.2,0.3-0.3,0.8-0.9,1.2c-0.7,0.4-1.4,0.6-2.1,0.7
			c-0.9,0-1.7-0.2-2.4-0.7c-2.5-1.6-5.1-5.4-6.7-7c-1-1-1.2-0.4-1.2,0c0,0.3,1.1,1.7,2.8,4c-0.3,0.6-0.9,1-1.5,1.1
			c-1.9,0.3-6.6-5.6-9.7-8.4c-0.8-0.7-1-0.6-1,0c0.8,1.3,1.7,2.6,2.7,3.7c-0.3,0.4-0.7,0.6-1.2,0.7c-2,0.3-7.1-6.6-8.7-7.3
			c-1.1-0.5-1-0.2-1-0.1c0,0.4,1.3,2,2.7,3.5c-0.3,0.6-0.8,0.9-1.4,1c-2.8,0.2-5.8-6.2-8-7.7c-0.4-0.3-0.8-0.5-0.9-0.1
			s1,1.9,2.1,3.3c-0.5,0.5-1.2,0.8-1.9,0.8c-2.3,0.3-6.2-5.7-8.8-7.4c-0.6-0.4-1-0.5-1-0.1c0.5,0.9,1,1.7,1.6,2.5
			c-0.8,1.5-1.9,1.2-3.1,0.9c-5.8-1.3-13.2-8.3-14.5-9.4c0,0,0.5-0.5,0.6-0.7c0.5-0.6,0.2-1.5,0.6-1.5c0,0,2.1,0.8,3.4,0.3
			s2.1-2.2,2.5-2.9c1,0.4,2.1,0.4,3.2,0.1c1.6-0.5,2.6-1.9,2.5-3.5c1.4,0.4,2.9,0.1,4-0.8c0.8-0.9,1.2-2.1,1-3.3
			c0,0,3.7,0.2,3.9-2.9c4.5,1,5.2-2.4,5.2-2.4c1.1,0.3,2.3,0.2,3.4-0.2c0.7-0.4,1.3-1,1.6-1.7c1.2,0.9,2.7,1.2,4.1,0.8
			c1-0.3,1.9-1,2.4-2c1.2,0.5,2.5,0.5,3.7,0.1c1.1-0.4,1.9-1.1,2.4-2.2c1,0.6,2.2,0.7,3.3,0.3c0.8-0.4,1.4-1,1.8-1.8
			c0.7,0.2,1.4,0.3,2.1,0.3c0.4-0.1,0.8-0.2,1.2-0.5c3.8,10.4,5,15.1,11.5,25.9c5.1,8.6,8.2,13.5,14.8,21.2
			C166.3,106.5,166.3,107.4,165.7,108L165.7,108z"/>
	</g>
</g>
</svg>
