<?xml version="1.0" encoding="utf-8"?>
<!-- Generator: Adobe Illustrator 27.8.0, SVG Export Plug-In . SVG Version: 6.00 Build 0)  -->
<svg version="1.1" id="TEXT" xmlns="http://www.w3.org/2000/svg" xmlns:xlink="http://www.w3.org/1999/xlink" x="0px" y="0px"
	 viewBox="0 0 196.7 216.8" style="enable-background:new 0 0 196.7 216.8;" xml:space="preserve">
<style type="text/css">
	.st0{fill:none;stroke:#231F20;stroke-width:3;stroke-linecap:round;stroke-linejoin:round;}
	.st1{fill:#231F20;}
	.st2{enable-background:new    ;}
</style>
<path class="st0" d="M161.4,164h-59.7l29.9-88.1L161.4,164z"/>
<path class="st0" d="M127.3,90.1l25.1,73.9"/>
<path class="st0" d="M101.7,75.9h29.9L101.7,164H35.1L65,75.9h13.2"/>
<path class="st0" d="M35.1,164L65,75.9"/>
<path class="st0" d="M48.4,164l3-8.9"/>
<path class="st0" d="M74.8,164l3-8.9"/>
<path class="st0" d="M88,164l3-8.9"/>
<rect x="78.2" y="62.2" class="st0" width="17.2" height="48"/>
<polygon class="st0" points="101.3,94.4 95.4,110.2 95.4,62.2 101.3,62.2 "/>
<path class="st0" d="M116.9,119.1h6c4.8,0,8.6,3.9,8.6,8.6v27.5h-20.1v-19.9"/>
<line class="st0" x1="105" y1="155.2" x2="149.4" y2="155.2"/>
<path class="st0" d="M61.6,164l3-8.9"/>
<path class="st0" d="M20.7,73.1c-0.8,3.3-3.5,12.2-8.9,16.7h8.9h8.9C24.2,85.3,21.5,76.5,20.7,73.1z"/>
<path class="st0" d="M22.2,89.8h-3c-1.7,5-4.7,11.6-9.4,15.5h10.9h10.9C26.9,101.4,23.9,94.8,22.2,89.8L22.2,89.8z"/>
<path class="st0" d="M22.4,105.3H19c-2,5.8-5.5,13.5-11,18.1h12.7h12.7C27.9,118.9,24.4,111.2,22.4,105.3L22.4,105.3z"/>
<path class="st0" d="M22.7,123.5h-3.9c-2.2,6.6-6.2,15.3-12.4,20.5h14.3h14.3C28.9,138.7,24.9,130,22.7,123.5L22.7,123.5z"/>
<line class="st0" x1="20.7" y1="138.2" x2="20.7" y2="164"/>
<path class="st0" d="M46.4,79.4c-0.8,3.3-3.5,12.2-8.9,16.7h8.9h8.9C49.9,91.6,47.2,82.7,46.4,79.4z"/>
<path class="st0" d="M54,108.2c-2.9-3.8-4.9-8.4-6.2-12.1h-3c-1.7,5-4.7,11.6-9.4,15.5h10.9h6.4"/>
<path class="st0" d="M50.7,118.1c-1.1-2.2-1.9-4.5-2.6-6.4h-3.5c-2,5.8-5.5,13.5-11,18.1h12.7"/>
<path class="st0" d="M175.7,73.1c-0.8,3.3-3.5,12.2-8.9,16.7h8.9h8.9C179.2,85.3,176.6,76.5,175.7,73.1z"/>
<path class="st0" d="M177.2,89.8h-2.9c-1.7,5-4.7,11.6-9.4,15.5h10.9h10.9C181.9,101.4,178.9,94.8,177.2,89.8L177.2,89.8z"/>
<path class="st0" d="M177.4,105.3H174c-2,5.8-5.5,13.5-11,18.1h12.7h12.7C182.9,118.9,179.4,111.2,177.4,105.3L177.4,105.3z"/>
<path class="st0" d="M177.7,123.5h-3.9c-2.2,6.6-6.2,15.3-12.4,20.5h14.3h14.3C183.9,138.7,179.9,130,177.7,123.5L177.7,123.5z"/>
<line class="st0" x1="175.7" y1="138.2" x2="175.7" y2="164"/>
<path class="st0" d="M150.5,79.4c0.8,3.3,3.5,12.2,8.9,16.7h-8.9h-8.9C147,91.6,149.6,82.7,150.5,79.4z"/>
<path class="st0" d="M142.8,108.2c2.9-3.8,4.9-8.4,6.2-12.1h2.9c1.7,5,4.7,11.6,9.4,15.5h-10.9h-6.4"/>
<path class="st0" d="M146.2,118.1c1.1-2.2,1.9-4.5,2.6-6.4h3.4c2,5.8,5.5,13.5,11,18.1h-12.7"/>
<path class="st0" d="M134.7,58c2.3-2.4,3.8-5.7,3.8-9.4c0-7.5-6.1-13.5-13.5-13.5s-13.5,6.1-13.5,13.5l-35.7,0"/>
<path class="st0" d="M138.5,52c1.2-0.9,2.8-1.4,4.4-1.4c4.2,0,7.6,3.4,7.6,7.6c0,2-0.8,3.9-2.1,5.3h14.4"/>
<polygon class="st0" points="154.7,28.5 157,32.7 161.2,35 157,37.3 154.7,41.6 152.4,37.3 148.1,35 152.4,32.7 "/>
<path class="st1" d="M121,21.7l0.7,1.3c0,0.1,0.1,0.1,0.2,0.1l1.3,0.7c0.3,0.1,0.3,0.5,0,0.7l-1.3,0.7c-0.1,0-0.1,0.1-0.2,0.1
	l-0.7,1.3c-0.2,0.3-0.5,0.3-0.7,0l-0.7-1.3c0-0.1-0.1-0.1-0.2-0.1l-1.3-0.7c-0.3-0.1-0.3-0.5,0-0.7l1.3-0.7c0.1,0,0.1-0.1,0.2-0.1
	l0.7-1.3C120.5,21.5,120.8,21.5,121,21.7z"/>
<path class="st1" d="M118.4,56.6l0.9,1.7c0.1,0.1,0.1,0.2,0.2,0.2l1.7,0.9c0.3,0.2,0.3,0.7,0,0.9l-1.7,0.9c-0.1,0-0.2,0.1-0.2,0.2
	l-0.9,1.7c-0.2,0.3-0.7,0.3-0.9,0l-0.9-1.7c-0.1-0.1-0.1-0.2-0.2-0.2l-1.7-0.9c-0.3-0.2-0.3-0.7,0-0.9l1.7-0.9
	c0.1,0,0.2-0.1,0.2-0.2l0.9-1.7C117.7,56.2,118.2,56.2,118.4,56.6z"/>
<path class="st1" d="M169.4,50.8l0.7,1.4c0,0.1,0.1,0.1,0.2,0.2l1.4,0.7c0.3,0.2,0.3,0.5,0,0.7l-1.4,0.7c-0.1,0-0.1,0.1-0.2,0.2
	l-0.7,1.4c-0.1,0.3-0.6,0.3-0.7,0l-0.7-1.4c0-0.1-0.1-0.1-0.2-0.2l-1.4-0.7c-0.3-0.2-0.3-0.5,0-0.7l1.4-0.7c0.1,0,0.1-0.1,0.2-0.2
	l0.7-1.4C168.8,50.5,169.2,50.5,169.4,50.8z"/>
<path class="st1" d="M84.1,13.4l1.2,2.1c0.1,0.1,0.2,0.2,0.2,0.2l2.1,1.2c0.4,0.2,0.4,0.9,0,1.1l-2.1,1.2c-0.1,0.1-0.2,0.1-0.2,0.2
	l-1.2,2.1c-0.2,0.4-0.9,0.4-1.1,0l-1.2-2.1c-0.1-0.1-0.2-0.2-0.2-0.2L79.5,18c-0.4-0.2-0.4-0.9,0-1.1l2.1-1.2
	c0.1-0.1,0.2-0.1,0.2-0.2l1.2-2.1C83.2,12.9,83.9,12.9,84.1,13.4z"/>
<path class="st1" d="M138.9,12.4l0.9,1.7c0.1,0.1,0.1,0.1,0.2,0.2l1.7,0.9c0.3,0.2,0.3,0.7,0,0.9l-1.7,0.9c-0.1,0-0.1,0.1-0.2,0.2
	l-0.9,1.7c-0.2,0.3-0.7,0.3-0.9,0l-0.9-1.7c-0.1-0.1-0.1-0.1-0.2-0.2l-1.7-0.9c-0.3-0.2-0.3-0.7,0-0.9l1.7-0.9
	c0.1-0.1,0.1-0.1,0.2-0.2l0.9-1.7C138.2,12,138.7,12,138.9,12.4z"/>
<path class="st1" d="M94.5,30l0.9,1.7c0.1,0.1,0.1,0.1,0.2,0.2l1.7,0.9c0.3,0.2,0.3,0.7,0,0.9l-1.7,0.9c-0.1,0-0.2,0.1-0.2,0.2
	l-0.9,1.7c-0.2,0.3-0.7,0.3-0.9,0l-0.9-1.7c-0.1-0.1-0.1-0.2-0.2-0.2l-1.7-0.9c-0.3-0.2-0.3-0.7,0-0.9l1.7-0.9
	c0.1,0,0.2-0.1,0.2-0.2l0.9-1.7C93.8,29.6,94.3,29.6,94.5,30z"/>
<polygon class="st0" points="62.2,19.9 64.6,24.2 68.9,26.6 64.6,28.9 62.2,33.3 59.8,28.9 55.5,26.6 59.8,24.2 "/>
<polygon class="st0" points="109.5,1.5 111.6,5.2 115.3,7.3 111.6,9.3 109.5,13.1 107.5,9.3 103.8,7.3 107.5,5.2 "/>
<path class="st0" d="M62.7,55.7c-14.6,0-26.5-11.9-26.5-26.5c0-3.3,0.6-6.4,1.7-9.3C30,24.1,24.7,32.4,24.7,42
	c0,13.9,11.3,25.2,25.2,25.2c9.6,0,17.9-5.3,22.2-13.2C69.2,55.1,66,55.7,62.7,55.7L62.7,55.7z"/>
<path class="st0" d="M46.4,59.9c0,0,14.5,4.2,25.7-5.9"/>
<path class="st0" d="M31.6,36.8c0,0-0.7-10.2,6.3-17"/>
<path class="st1" d="M33.2,42.2c0,0.9-0.7,1.6-1.6,1.6s-1.6-0.7-1.6-1.6s0.7-1.6,1.6-1.6C32.4,40.5,33.2,41.3,33.2,42.2z"/>
<path class="st1" d="M34.8,47.3c0,0.9-0.7,1.6-1.6,1.6s-1.6-0.7-1.6-1.6s0.7-1.6,1.6-1.6S34.8,46.5,34.8,47.3z"/>
<line class="st0" x1="1.5" y1="164" x2="195.2" y2="164"/>
<line class="st0" x1="1.5" y1="189.4" x2="195.2" y2="189.4"/>
<line class="st0" x1="1.5" y1="172.5" x2="20.7" y2="172.5"/>
<line class="st0" x1="175.7" y1="172.5" x2="194.9" y2="172.5"/>
<line class="st0" x1="1.5" y1="180.9" x2="20.7" y2="180.9"/>
<line class="st0" x1="175.7" y1="180.9" x2="194.9" y2="180.9"/>
<path class="st0" d="M50.8,189.4h95c0,14.3-11.6,25.9-25.8,25.9H76.7C62.4,215.3,50.8,203.7,50.8,189.4L50.8,189.4L50.8,189.4z"/>
<g class="st2">
	<path d="M35.7,177.8c0.5,0.6,0.7,1.4,0.7,2.4c0,1.7-0.5,2.9-1.5,3.6c-1,0.7-2.2,1-3.5,1H26c-0.4,0-0.7-0.1-0.9-0.4
		s-0.4-0.6-0.4-0.9v-12.6c0-0.4,0.1-0.7,0.4-0.9c0.3-0.3,0.6-0.4,0.9-0.4h5.5c2.8,0,4.1,1.3,4.1,3.9c0,0.7-0.2,1.2-0.5,1.7
		c-0.3,0.5-0.8,0.9-1.3,1.2C34.6,176.7,35.2,177.2,35.7,177.8z M32.4,172.6c-0.3-0.3-0.7-0.4-1.3-0.4h-3.6v3.4h3.7
		c0.4,0,0.8-0.1,1.1-0.4c0.3-0.3,0.5-0.7,0.5-1.2C32.8,173.4,32.7,172.9,32.4,172.6z M33.1,181.8c0.4-0.4,0.6-0.9,0.6-1.6
		c0-0.9-0.2-1.4-0.7-1.7c-0.5-0.3-1-0.4-1.7-0.4h-3.8v4.2h3.9C32.1,182.3,32.7,182.2,33.1,181.8z"/>
	<path d="M55.7,183.2c0.1,0.2,0.2,0.4,0.2,0.6c0,0.3-0.1,0.5-0.3,0.7c-0.2,0.3-0.6,0.4-1,0.4c-0.3,0-0.7-0.1-1-0.2
		c-1-0.6-1.6-1.8-1.6-3.6c0-0.5-0.2-0.9-0.5-1.2c-0.3-0.3-0.8-0.5-1.5-0.5H46v4.2c0,0.4-0.1,0.7-0.3,1c-0.2,0.2-0.5,0.4-0.8,0.4
		c-0.4,0-0.8-0.1-1.1-0.4s-0.5-0.6-0.5-0.9v-12.6c0-0.4,0.1-0.7,0.4-0.9c0.3-0.3,0.6-0.4,0.9-0.4h6.3c0.8,0,1.5,0.2,2.1,0.6
		c0.7,0.4,1.2,1,1.6,1.7s0.6,1.5,0.6,2.4c0,0.7-0.2,1.4-0.6,2.1c-0.4,0.7-0.9,1.2-1.5,1.6c0.9,0.6,1.4,1.5,1.5,2.6
		c0,0.2,0.1,0.5,0.1,0.7c0.1,0.5,0.1,0.8,0.2,1c0.1,0.2,0.2,0.3,0.4,0.4C55.5,182.8,55.6,183,55.7,183.2z M51.6,176.7
		c0.2-0.2,0.4-0.6,0.6-1s0.2-0.9,0.2-1.3c0-0.4-0.1-0.8-0.2-1.1s-0.4-0.6-0.6-0.8c-0.2-0.2-0.5-0.3-0.8-0.3H46v4.9h4.8
		C51.1,177,51.3,176.9,51.6,176.7z"/>
	<path d="M74.7,183.7c0,0.4-0.1,0.7-0.4,0.9c-0.2,0.2-0.5,0.4-0.8,0.4c-0.3,0-0.5-0.1-0.7-0.2c-0.2-0.2-0.4-0.4-0.5-0.7l-1.1-2.6
		h-6.5l-1.1,2.7c-0.1,0.3-0.3,0.5-0.5,0.6s-0.4,0.2-0.7,0.2c-0.4,0-0.7-0.1-0.9-0.3c-0.2-0.2-0.3-0.5-0.3-0.8c0-0.1,0-0.3,0.1-0.4
		l5.4-13c0.1-0.3,0.3-0.5,0.5-0.7c0.2-0.2,0.5-0.2,0.8-0.2c0.3,0,0.5,0.1,0.7,0.2c0.2,0.2,0.4,0.4,0.5,0.6l5.4,12.8
		C74.6,183.3,74.7,183.5,74.7,183.7z M65.7,178.9h4.4l-2.2-5.1L65.7,178.9z"/>
	<path d="M92.9,170c0.2,0.2,0.4,0.6,0.4,1v12.6c0,0.4-0.1,0.7-0.4,0.9s-0.6,0.4-1,0.4c-0.4,0-0.7-0.1-0.9-0.4s-0.4-0.6-0.4-0.9v-5.1
		h-6.9v5.1c0,0.4-0.1,0.7-0.4,0.9c-0.3,0.3-0.6,0.4-1,0.4c-0.4,0-0.7-0.1-1-0.4s-0.4-0.6-0.4-0.9v-12.6c0-0.4,0.1-0.7,0.4-0.9
		c0.3-0.3,0.6-0.4,1-0.4c0.4,0,0.7,0.1,0.9,0.4c0.3,0.3,0.4,0.6,0.4,0.9v5h6.9v-5c0-0.4,0.1-0.7,0.4-0.9c0.3-0.3,0.6-0.4,1-0.4
		C92.3,169.6,92.7,169.7,92.9,170z"/>
	<path d="M115.1,170c0.3,0.3,0.4,0.6,0.4,0.9v12.6c0,0.4-0.1,0.7-0.4,0.9c-0.2,0.3-0.6,0.4-1,0.4s-0.7-0.1-1-0.4s-0.4-0.6-0.4-1
		v-8.8l-3.6,5.5c-0.1,0.2-0.3,0.3-0.5,0.4c-0.2,0.1-0.4,0.2-0.6,0.1c-0.2,0-0.4,0-0.6-0.1c-0.2-0.1-0.4-0.3-0.5-0.4l-3.6-5.7v9
		c0,0.4-0.1,0.7-0.3,1c-0.2,0.2-0.5,0.4-0.9,0.4c-0.4,0-0.7-0.1-0.9-0.4s-0.3-0.6-0.3-0.9v-12.6c0-0.4,0.1-0.7,0.4-0.9
		c0.3-0.3,0.6-0.4,1-0.4c0.2,0,0.4,0.1,0.7,0.2c0.2,0.1,0.4,0.3,0.5,0.4l4.7,7.3l4.9-7.3c0.1-0.2,0.3-0.3,0.5-0.4
		c0.2-0.1,0.4-0.2,0.6-0.2C114.5,169.6,114.8,169.7,115.1,170z"/>
	<path d="M125.2,184.7c-0.8-0.3-1.6-0.7-2.3-1.3c-0.4-0.3-0.6-0.7-0.6-1.2c0-0.3,0.1-0.6,0.4-0.9c0.2-0.3,0.5-0.4,0.9-0.4
		c0.3,0,0.5,0.1,0.7,0.3c0.6,0.5,1.1,0.8,1.7,1s1.2,0.3,2,0.3c0.8,0,1.5-0.2,2.1-0.5c0.6-0.4,0.9-0.8,0.9-1.3c0-0.7-0.3-1.2-0.9-1.5
		c-0.6-0.4-1.5-0.6-2.8-0.8c-3.2-0.5-4.8-1.9-4.8-4.4c0-0.9,0.2-1.7,0.7-2.4c0.5-0.7,1.1-1.2,2-1.5s1.7-0.5,2.8-0.5
		c0.9,0,1.8,0.1,2.6,0.4c0.8,0.3,1.5,0.6,2,1.1c0.4,0.3,0.6,0.7,0.6,1.2c0,0.3-0.1,0.6-0.4,0.9s-0.5,0.4-0.9,0.4
		c-0.2,0-0.4-0.1-0.6-0.2c-0.4-0.3-0.9-0.6-1.6-0.8s-1.3-0.4-1.8-0.4c-0.9,0-1.6,0.2-2.1,0.5c-0.5,0.3-0.8,0.8-0.8,1.3
		c0,0.6,0.3,1.1,0.8,1.4c0.5,0.3,1.3,0.6,2.4,0.8c1.2,0.2,2.2,0.5,3,0.8c0.7,0.3,1.3,0.8,1.7,1.4c0.4,0.6,0.6,1.4,0.6,2.3
		c0,0.9-0.3,1.7-0.8,2.4c-0.5,0.7-1.2,1.2-2.1,1.6c-0.9,0.4-1.8,0.6-2.8,0.6C126.9,185.1,126,184.9,125.2,184.7z"/>
	<path d="M150,182.7c0.3,0.3,0.4,0.5,0.4,0.9c0,0.4-0.1,0.7-0.4,0.9c-0.3,0.2-0.6,0.3-0.9,0.3h-7.3c-0.4,0-0.7-0.1-0.9-0.4
		s-0.4-0.6-0.4-0.9v-12.6c0-0.4,0.1-0.7,0.4-0.9c0.3-0.3,0.6-0.4,0.9-0.4h7.3c0.4,0,0.7,0.1,0.9,0.4s0.4,0.5,0.4,0.9
		c0,0.4-0.1,0.7-0.4,0.9c-0.2,0.2-0.6,0.3-1,0.3h-5.9v3.7h4.9c0.4,0,0.7,0.1,0.9,0.4c0.3,0.2,0.4,0.5,0.4,0.9c0,0.4-0.1,0.7-0.4,0.9
		c-0.2,0.2-0.6,0.3-1,0.3h-4.9v4h5.9C149.4,182.3,149.7,182.5,150,182.7z"/>
	<path d="M166.8,182.7c0.3,0.3,0.4,0.5,0.4,0.9c0,0.4-0.1,0.7-0.4,0.9c-0.3,0.2-0.6,0.3-0.9,0.3h-7.3c-0.4,0-0.7-0.1-0.9-0.4
		s-0.4-0.6-0.4-0.9v-12.6c0-0.4,0.1-0.7,0.4-0.9c0.3-0.3,0.6-0.4,0.9-0.4h7.3c0.4,0,0.7,0.1,0.9,0.4s0.4,0.5,0.4,0.9
		c0,0.4-0.1,0.7-0.4,0.9c-0.2,0.2-0.6,0.3-1,0.3H160v3.7h4.9c0.4,0,0.7,0.1,0.9,0.4c0.3,0.2,0.4,0.5,0.4,0.9c0,0.4-0.1,0.7-0.4,0.9
		c-0.2,0.2-0.6,0.3-1,0.3H160v4h5.9C166.2,182.3,166.6,182.5,166.8,182.7z"/>
</g>
<g class="st2">
	<path d="M77.7,204.5c0.2,0.2,0.3,0.4,0.3,0.6c0,0.2-0.1,0.5-0.3,0.6c-0.2,0.2-0.4,0.2-0.6,0.2h-5c-0.3,0-0.5-0.1-0.6-0.3
		c-0.2-0.2-0.3-0.4-0.3-0.6v-8.6c0-0.3,0.1-0.5,0.3-0.6s0.4-0.3,0.6-0.3h5c0.3,0,0.5,0.1,0.6,0.2c0.2,0.2,0.3,0.4,0.3,0.6
		c0,0.2-0.1,0.5-0.3,0.6c-0.2,0.2-0.4,0.2-0.7,0.2h-4v2.5h3.4c0.3,0,0.5,0.1,0.6,0.2c0.2,0.2,0.3,0.4,0.3,0.6c0,0.2-0.1,0.5-0.3,0.6
		c-0.2,0.2-0.4,0.2-0.7,0.2H73v2.8h4C77.3,204.2,77.5,204.3,77.7,204.5z"/>
	<path d="M77.8,204.3c0-0.3,0.1-0.5,0.4-0.7c0.1-0.1,0.3-0.1,0.4-0.1c0.2,0,0.4,0.1,0.6,0.3c0.3,0.3,0.6,0.5,0.9,0.7
		s0.7,0.2,1.2,0.2c0.8,0,1.2-0.3,1.2-0.9c0-0.3-0.1-0.5-0.4-0.7c-0.3-0.1-0.7-0.3-1.2-0.4c-0.6-0.2-1-0.3-1.4-0.5s-0.7-0.4-0.9-0.7
		c-0.3-0.3-0.4-0.8-0.4-1.3c0-0.5,0.1-0.9,0.4-1.2s0.6-0.6,1.1-0.8s0.9-0.3,1.4-0.3c0.5,0,1,0.1,1.5,0.3c0.5,0.2,0.9,0.5,1.2,0.8
		c0.1,0.2,0.2,0.3,0.2,0.5c0,0.2-0.1,0.4-0.3,0.6c-0.1,0.1-0.3,0.2-0.5,0.2c-0.2,0-0.4-0.1-0.5-0.2c-0.2-0.2-0.4-0.4-0.7-0.5
		s-0.6-0.2-1-0.2c-0.8,0-1.1,0.3-1.1,0.8c0,0.2,0.1,0.4,0.2,0.5c0.1,0.1,0.3,0.2,0.5,0.3c0.2,0.1,0.5,0.2,0.9,0.3
		c0.5,0.1,1,0.3,1.3,0.5s0.7,0.4,0.9,0.7c0.2,0.3,0.4,0.8,0.4,1.3c0,0.5-0.1,0.9-0.4,1.3s-0.7,0.6-1.1,0.8c-0.5,0.2-0.9,0.3-1.4,0.3
		c-0.7,0-1.3-0.1-1.8-0.3c-0.6-0.2-1-0.6-1.4-1.1C77.8,204.6,77.8,204.5,77.8,204.3z"/>
</g>
<g class="st2">
	<path d="M88.7,204.5c0.1,0.1,0.2,0.3,0.2,0.5c0,0.3-0.1,0.5-0.4,0.7c-0.3,0.2-0.6,0.3-1,0.3c-0.6,0-1.1-0.1-1.6-0.4
		c-0.4-0.3-0.6-0.8-0.6-1.7v-4.1h-0.7c-0.2,0-0.4-0.1-0.6-0.2s-0.2-0.4-0.2-0.6c0-0.2,0.1-0.4,0.2-0.6s0.4-0.2,0.6-0.2h0.7v-1
		c0-0.3,0.1-0.5,0.3-0.6c0.2-0.2,0.4-0.3,0.6-0.3c0.2,0,0.5,0.1,0.6,0.3c0.2,0.2,0.3,0.4,0.3,0.6v1h1.1c0.2,0,0.4,0.1,0.6,0.2
		c0.2,0.2,0.2,0.4,0.2,0.6c0,0.2-0.1,0.4-0.2,0.6c-0.2,0.2-0.4,0.2-0.6,0.2h-1.1v4c0,0.2,0.1,0.4,0.2,0.5c0.1,0.1,0.3,0.1,0.4,0.1
		c0.1,0,0.2,0,0.3-0.1c0.1,0,0.2-0.1,0.3-0.1C88.5,204.3,88.6,204.3,88.7,204.5z"/>
</g>
<g class="st2">
	<path d="M96.5,195.2c0.2,0.2,0.3,0.4,0.3,0.7v9.2c0,0.3-0.1,0.5-0.3,0.6c-0.2,0.2-0.4,0.3-0.6,0.3s-0.5-0.1-0.6-0.3
		c-0.2-0.2-0.3-0.4-0.3-0.6c-0.2,0.3-0.6,0.5-1,0.7c-0.4,0.2-0.9,0.3-1.3,0.3c-0.7,0-1.3-0.2-1.9-0.5c-0.6-0.4-1-0.8-1.3-1.5
		c-0.3-0.6-0.5-1.3-0.5-2.1c0-0.8,0.2-1.5,0.5-2.1c0.3-0.6,0.8-1.1,1.3-1.5s1.2-0.5,1.8-0.5c0.5,0,0.9,0.1,1.3,0.3
		c0.4,0.2,0.8,0.4,1.1,0.7v-2.9c0-0.3,0.1-0.5,0.3-0.6c0.2-0.2,0.4-0.3,0.6-0.3S96.4,195,96.5,195.2z M94.5,203.8
		c0.4-0.5,0.6-1.1,0.6-1.8s-0.2-1.3-0.6-1.8c-0.4-0.5-0.9-0.7-1.6-0.7c-0.6,0-1.2,0.2-1.6,0.7c-0.4,0.5-0.6,1.1-0.6,1.8
		s0.2,1.3,0.6,1.8c0.4,0.5,0.9,0.7,1.6,0.7C93.5,204.5,94,204.2,94.5,203.8z"/>
	<path d="M103.6,195.8c0.2,0.2,0.3,0.4,0.3,0.6v8.6c0,0.3-0.1,0.5-0.3,0.6c-0.2,0.2-0.4,0.3-0.7,0.3c-0.3,0-0.5-0.1-0.7-0.3
		c-0.2-0.2-0.3-0.4-0.3-0.6V198l-0.9,0.6c-0.1,0.1-0.3,0.1-0.5,0.1c-0.2,0-0.5-0.1-0.6-0.3s-0.3-0.4-0.3-0.6c0-0.2,0-0.3,0.1-0.4
		c0.1-0.1,0.2-0.2,0.3-0.3l2.3-1.3c0.2-0.1,0.4-0.1,0.6-0.1C103.3,195.5,103.5,195.6,103.6,195.8z"/>
	<path d="M109.7,195.9c0.5,0.4,1,0.9,1.2,1.5c0.3,0.6,0.4,1.3,0.4,2c0,0.7-0.1,1.5-0.4,2.4s-0.7,1.7-1.4,2.5s-1.6,1.3-2.7,1.7
		c-0.1,0-0.2,0-0.3,0c-0.3,0-0.5-0.1-0.6-0.2c-0.2-0.1-0.3-0.3-0.3-0.6c0-0.2,0.1-0.4,0.2-0.6c0.1-0.2,0.3-0.3,0.6-0.4
		c0.6-0.2,1.2-0.5,1.7-1c0.5-0.5,0.9-1,1.2-1.6c-0.5,0.4-1.1,0.6-1.7,0.6c-0.5,0-1-0.2-1.5-0.5c-0.5-0.3-0.9-0.7-1.2-1.3
		s-0.5-1.1-0.5-1.7c0-0.6,0.2-1.2,0.5-1.7c0.3-0.5,0.7-1,1.3-1.3c0.5-0.3,1.1-0.5,1.7-0.5C108.6,195.3,109.2,195.5,109.7,195.9z
		 M109.1,200.1c0.3-0.3,0.5-0.8,0.5-1.3s-0.2-1-0.5-1.3c-0.3-0.3-0.7-0.5-1.2-0.5c-0.5,0-0.9,0.2-1.2,0.5c-0.3,0.3-0.5,0.8-0.5,1.3
		s0.2,1,0.5,1.3c0.3,0.3,0.7,0.5,1.2,0.5C108.4,200.6,108.8,200.4,109.1,200.1z"/>
	<path d="M118.4,195.8c0.2,0.2,0.3,0.4,0.3,0.6c0,0.1,0,0.3-0.1,0.4l-3.9,8.7c-0.1,0.2-0.2,0.3-0.3,0.4c-0.1,0.1-0.3,0.1-0.5,0.1
		c-0.2,0-0.5-0.1-0.6-0.3c-0.2-0.2-0.3-0.4-0.3-0.6c0-0.1,0-0.3,0.1-0.4l3.5-7.6h-4c-0.2,0-0.4-0.1-0.6-0.2s-0.2-0.4-0.2-0.6
		c0-0.2,0.1-0.4,0.2-0.6s0.4-0.2,0.6-0.2h5.2C118,195.5,118.2,195.6,118.4,195.8z"/>
	<path d="M124.1,195.9c0.5,0.4,1,0.9,1.2,1.5c0.3,0.6,0.4,1.3,0.4,2c0,0.7-0.1,1.5-0.4,2.4s-0.7,1.7-1.4,2.5s-1.6,1.3-2.7,1.7
		c-0.1,0-0.2,0-0.3,0c-0.3,0-0.5-0.1-0.6-0.2c-0.2-0.1-0.3-0.3-0.3-0.6c0-0.2,0.1-0.4,0.2-0.6s0.3-0.3,0.6-0.4
		c0.6-0.2,1.2-0.5,1.7-1c0.5-0.5,0.9-1,1.2-1.6c-0.5,0.4-1.1,0.6-1.7,0.6c-0.5,0-1-0.2-1.5-0.5c-0.5-0.3-0.9-0.7-1.2-1.3
		c-0.3-0.5-0.5-1.1-0.5-1.7c0-0.6,0.2-1.2,0.5-1.7c0.3-0.5,0.7-1,1.3-1.3c0.5-0.3,1.1-0.5,1.7-0.5
		C122.9,195.3,123.5,195.5,124.1,195.9z M123.4,200.1c0.3-0.3,0.5-0.8,0.5-1.3s-0.2-1-0.5-1.3c-0.3-0.3-0.7-0.5-1.2-0.5
		c-0.5,0-0.9,0.2-1.2,0.5c-0.3,0.3-0.5,0.8-0.5,1.3s0.2,1,0.5,1.3c0.3,0.3,0.7,0.5,1.2,0.5C122.7,200.6,123.1,200.4,123.4,200.1z"/>
</g>
</svg>
