<?xml version="1.0" encoding="UTF-8"?><svg id="TEXT" xmlns="http://www.w3.org/2000/svg" viewBox="0 0 196.67 216.8"><defs><style>.cls-1{letter-spacing:-.08em;}.cls-2{fill:#231f20;}.cls-3{letter-spacing:-.08em;}.cls-4{font-size:21.77px;letter-spacing:.2em;}.cls-4,.cls-5{font-family:Quicksand-Bold, Quicksand;font-weight:700;}.cls-5{font-size:14.93px;}.cls-6{fill:none;stroke:#231f20;stroke-linecap:round;stroke-linejoin:round;stroke-width:3px;}</style></defs><path class="cls-6" d="m161.39,164.01h-59.72l29.86-88.08,29.86,88.08Z"/><path class="cls-6" d="m127.34,90.11l25.05,73.9"/><path class="cls-6" d="m101.67,75.93h29.86l-29.86,88.08H35.14l29.86-88.08h13.23"/><path class="cls-6" d="m35.14,164.01l29.86-88.08"/><path class="cls-6" d="m48.36,164.01l3-8.85"/><path class="cls-6" d="m74.81,164.01l3-8.85"/><path class="cls-6" d="m88.04,164.01l3-8.85"/><rect class="cls-6" x="78.22" y="62.22" width="17.18" height="47.98"/><polygon class="cls-6" points="101.27 94.42 95.4 110.2 95.4 62.22 101.27 62.22 101.27 94.42"/><path class="cls-6" d="m116.91,119.05h6c4.76,0,8.61,3.86,8.61,8.61v27.5h-20.13v-19.87"/><line class="cls-6" x1="105.02" y1="155.17" x2="149.39" y2="155.17"/><path class="cls-6" d="m61.59,164.01l3-8.85"/><path class="cls-6" d="m20.71,73.13c-.83,3.35-3.47,12.22-8.87,16.73h8.87s8.87,0,8.87,0c-5.4-4.52-8.04-13.39-8.87-16.73Z"/><path class="cls-6" d="m22.19,89.83h-2.95c-1.7,4.97-4.69,11.58-9.39,15.51h10.86s10.86,0,10.86,0c-4.7-3.93-7.69-10.54-9.39-15.51Z"/><path class="cls-6" d="m22.44,105.34h-3.45c-1.99,5.81-5.48,13.53-10.97,18.12h12.69s12.69,0,12.69,0c-5.49-4.59-8.98-12.31-10.97-18.12Z"/><path class="cls-6" d="m22.66,123.46h-3.89c-2.25,6.56-6.19,15.28-12.38,20.46h14.33s14.33,0,14.33,0c-6.2-5.18-10.14-13.9-12.38-20.46Z"/><line class="cls-6" x1="20.71" y1="138.23" x2="20.71" y2="164.01"/><path class="cls-6" d="m46.4,79.4c-.83,3.35-3.47,12.22-8.87,16.73h8.87s8.87,0,8.87,0c-5.4-4.52-8.04-13.39-8.87-16.73Z"/><path class="cls-6" d="m54.05,108.22c-2.9-3.75-4.9-8.4-6.18-12.13h-2.95c-1.7,4.97-4.69,11.58-9.39,15.51h10.86s6.39,0,6.39,0"/><path class="cls-6" d="m50.72,118.05c-1.06-2.24-1.91-4.46-2.6-6.45h-3.45c-1.99,5.81-5.48,13.53-10.97,18.12h12.69"/><path class="cls-6" d="m175.72,73.13c-.83,3.35-3.47,12.22-8.87,16.73h8.87s8.87,0,8.87,0c-5.4-4.52-8.04-13.39-8.87-16.73Z"/><path class="cls-6" d="m177.2,89.83h-2.95c-1.7,4.97-4.69,11.58-9.39,15.51h10.86s10.86,0,10.86,0c-4.7-3.93-7.69-10.54-9.39-15.51Z"/><path class="cls-6" d="m177.45,105.34h-3.45c-1.99,5.81-5.48,13.53-10.97,18.12h12.69s12.69,0,12.69,0c-5.49-4.59-8.98-12.31-10.97-18.12Z"/><path class="cls-6" d="m177.67,123.46h-3.89c-2.25,6.56-6.19,15.28-12.38,20.46h14.33s14.33,0,14.33,0c-6.2-5.18-10.14-13.9-12.38-20.46Z"/><line class="cls-6" x1="175.72" y1="138.23" x2="175.72" y2="164.01"/><path class="cls-6" d="m150.48,79.4c.83,3.35,3.47,12.22,8.87,16.73h-8.87s-8.87,0-8.87,0c5.4-4.52,8.04-13.39,8.87-16.73Z"/><path class="cls-6" d="m142.83,108.22c2.9-3.75,4.9-8.4,6.18-12.13h2.95c1.7,4.97,4.69,11.58,9.39,15.51h-10.86s-6.39,0-6.39,0"/><path class="cls-6" d="m146.16,118.05c1.06-2.24,1.91-4.46,2.6-6.45h3.45c1.99,5.81,5.48,13.53,10.97,18.12h-12.69"/><path class="cls-6" d="m134.71,57.96c2.34-2.43,3.78-5.74,3.78-9.38,0-7.48-6.06-13.54-13.54-13.54s-13.54,6.06-13.54,13.54l-35.65-.05"/><path class="cls-6" d="m138.49,51.95c1.24-.89,2.76-1.41,4.41-1.41,4.2,0,7.6,3.4,7.6,7.6,0,2.04-.81,3.9-2.12,5.26h14.35"/><polygon class="cls-6" points="154.67 28.46 156.99 32.71 161.24 35.03 156.99 37.35 154.67 41.6 152.35 37.35 148.1 35.03 152.35 32.71 154.67 28.46"/><path class="cls-2" d="m120.98,21.73l.71,1.3c.04.06.09.12.15.15l1.3.71c.27.15.27.53,0,.68l-1.3.71c-.06.04-.12.09-.15.15l-.71,1.3c-.15.27-.53.27-.68,0l-.71-1.3c-.04-.06-.09-.12-.15-.15l-1.3-.71c-.27-.15-.27-.53,0-.68l1.3-.71c.06-.04.12-.09.15-.15l.71-1.3c.15-.27.53-.27.68,0Z"/><path class="cls-2" d="m118.38,56.59l.93,1.7c.05.08.12.15.2.2l1.7.93c.35.19.35.69,0,.89l-1.7.93c-.08.05-.15.12-.2.2l-.93,1.7c-.19.35-.69.35-.88,0l-.93-1.7c-.05-.08-.12-.15-.2-.2l-1.7-.93c-.35-.19-.35-.69,0-.89l1.7-.93c.08-.05.15-.12.2-.2l.93-1.7c.19-.35.69-.35.88,0Z"/><path class="cls-2" d="m169.41,50.75l.74,1.36c.04.07.09.12.16.16l1.36.74c.28.15.28.55,0,.71l-1.36.74c-.07.04-.12.09-.16.16l-.74,1.36c-.15.28-.55.28-.71,0l-.74-1.36c-.04-.07-.09-.12-.16-.16l-1.36-.74c-.28-.15-.28-.55,0-.71l1.36-.74c.07-.04.12-.09.16-.16l.74-1.36c.15-.28.55-.28.71,0Z"/><path class="cls-2" d="m84.11,13.38l1.17,2.13c.06.11.15.19.25.25l2.13,1.17c.44.24.44.87,0,1.11l-2.13,1.17c-.11.06-.19.15-.25.25l-1.17,2.13c-.24.44-.87.44-1.11,0l-1.17-2.13c-.06-.11-.15-.19-.25-.25l-2.13-1.17c-.44-.24-.44-.87,0-1.11l2.13-1.17c.11-.06.19-.15.25-.25l1.17-2.13c.24-.44.87-.44,1.11,0Z"/><path class="cls-2" d="m138.93,12.35l.91,1.67c.05.08.11.15.2.2l1.67.91c.34.19.34.68,0,.87l-1.67.91c-.08.05-.15.11-.2.2l-.91,1.67c-.19.34-.68.34-.87,0l-.91-1.67c-.05-.08-.11-.15-.2-.2l-1.67-.91c-.34-.19-.34-.68,0-.87l1.67-.91c.08-.05.15-.11.2-.2l.91-1.67c.19-.34.68-.34.87,0Z"/><path class="cls-2" d="m94.48,29.98l.93,1.7c.05.08.12.15.2.2l1.7.93c.35.19.35.69,0,.89l-1.7.93c-.08.05-.15.12-.2.2l-.93,1.7c-.19.35-.69.35-.88,0l-.93-1.7c-.05-.08-.12-.15-.2-.2l-1.7-.93c-.35-.19-.35-.69,0-.89l1.7-.93c.08-.05.15-.12.2-.2l.93-1.7c.19-.35.69-.35.88,0Z"/><polygon class="cls-6" points="62.18 19.87 64.55 24.2 68.88 26.56 64.55 28.93 62.18 33.26 59.81 28.93 55.48 26.56 59.81 24.2 62.18 19.87"/><polygon class="cls-6" points="109.53 1.5 111.57 5.23 115.31 7.27 111.57 9.32 109.53 13.05 107.49 9.32 103.76 7.27 107.49 5.23 109.53 1.5"/><path class="cls-6" d="m62.74,55.69c-14.65,0-26.53-11.88-26.53-26.53,0-3.28.6-6.42,1.69-9.32-7.88,4.26-13.23,12.6-13.23,22.18,0,13.92,11.28,25.2,25.2,25.2,9.59,0,17.92-5.35,22.18-13.23-2.9,1.09-6.04,1.69-9.32,1.69Z"/><path class="cls-6" d="m46.4,59.87s14.5,4.16,25.66-5.86"/><path class="cls-6" d="m31.58,36.79s-.7-10.23,6.32-16.95"/><path class="cls-2" d="m33.17,42.15c0,.89-.72,1.61-1.61,1.61s-1.61-.72-1.61-1.61.72-1.61,1.61-1.61,1.61.72,1.61,1.61Z"/><path class="cls-2" d="m34.78,47.34c0,.89-.72,1.61-1.61,1.61s-1.61-.72-1.61-1.61.72-1.61,1.61-1.61,1.61.72,1.61,1.61Z"/><line class="cls-6" x1="1.5" y1="164.01" x2="195.17" y2="164.01"/><line class="cls-6" x1="1.5" y1="189.41" x2="195.17" y2="189.41"/><line class="cls-6" x1="1.5" y1="172.48" x2="20.71" y2="172.48"/><line class="cls-6" x1="175.72" y1="172.48" x2="194.94" y2="172.48"/><line class="cls-6" x1="1.5" y1="180.95" x2="20.71" y2="180.95"/><line class="cls-6" x1="175.72" y1="180.95" x2="194.94" y2="180.95"/><path class="cls-6" d="m50.84,189.45h95c0,14.27-11.59,25.85-25.85,25.85h-43.29c-14.27,0-25.85-11.59-25.85-25.85h0Z"/><text class="cls-4" transform="translate(23.07 184.84)"><tspan x="0" y="0">BRAHMSEE</tspan></text><text class="cls-5" transform="translate(70.04 205.96)"><tspan class="cls-3" x="0" y="0">Es</tspan><tspan class="cls-1" x="13.5" y="0">t</tspan><tspan class="cls-3" x="18.41" y="0">d 1979</tspan></text></svg>