<svg id="Gruppe_94" data-name="Gruppe 94" xmlns="http://www.w3.org/2000/svg" width="196.7" height="216.8" viewBox="0 0 196.7 216.8">
  <path id="Pfad_110" data-name="Pfad 110" d="M161.4,164H101.7l29.9-88.1Z" fill="none" stroke="#fff" stroke-linecap="round" stroke-linejoin="round" stroke-width="3"/>
  <path id="Pfad_111" data-name="Pfad 111" d="M127.3,90.1,152.4,164" fill="none" stroke="#fff" stroke-linecap="round" stroke-linejoin="round" stroke-width="3"/>
  <path id="Pfad_112" data-name="Pfad 112" d="M101.7,75.9h29.9L101.7,164H35.1L65,75.9H78.2" fill="none" stroke="#fff" stroke-linecap="round" stroke-linejoin="round" stroke-width="3"/>
  <path id="Pfad_113" data-name="Pfad 113" d="M35.1,164,65,75.9" fill="none" stroke="#fff" stroke-linecap="round" stroke-linejoin="round" stroke-width="3"/>
  <path id="Pfad_114" data-name="Pfad 114" d="M48.4,164l3-8.9" fill="none" stroke="#fff" stroke-linecap="round" stroke-linejoin="round" stroke-width="3"/>
  <path id="Pfad_115" data-name="Pfad 115" d="M74.8,164l3-8.9" fill="none" stroke="#fff" stroke-linecap="round" stroke-linejoin="round" stroke-width="3"/>
  <path id="Pfad_116" data-name="Pfad 116" d="M88,164l3-8.9" fill="none" stroke="#fff" stroke-linecap="round" stroke-linejoin="round" stroke-width="3"/>
  <rect id="Rechteck_44" data-name="Rechteck 44" width="17.2" height="48" transform="translate(78.2 62.2)" fill="none" stroke="#fff" stroke-linecap="round" stroke-linejoin="round" stroke-width="3"/>
  <path id="Pfad_117" data-name="Pfad 117" d="M101.3,94.4l-5.9,15.8v-48h5.9Z" fill="none" stroke="#fff" stroke-linecap="round" stroke-linejoin="round" stroke-width="3"/>
  <path id="Pfad_118" data-name="Pfad 118" d="M116.9,119.1h6a8.6,8.6,0,0,1,8.6,8.6v27.5H111.4V135.3" fill="none" stroke="#fff" stroke-linecap="round" stroke-linejoin="round" stroke-width="3"/>
  <line id="Linie_22" data-name="Linie 22" x2="44.4" transform="translate(105 155.2)" fill="none" stroke="#fff" stroke-linecap="round" stroke-linejoin="round" stroke-width="3"/>
  <path id="Pfad_119" data-name="Pfad 119" d="M61.6,164l3-8.9" fill="none" stroke="#fff" stroke-linecap="round" stroke-linejoin="round" stroke-width="3"/>
  <path id="Pfad_120" data-name="Pfad 120" d="M20.7,73.1c-.8,3.3-3.5,12.2-8.9,16.7H29.6C24.2,85.3,21.5,76.5,20.7,73.1Z" fill="none" stroke="#fff" stroke-linecap="round" stroke-linejoin="round" stroke-width="3"/>
  <path id="Pfad_121" data-name="Pfad 121" d="M22.2,89.8h-3c-1.7,5-4.7,11.6-9.4,15.5H31.6c-4.7-3.9-7.7-10.5-9.4-15.5Z" fill="none" stroke="#fff" stroke-linecap="round" stroke-linejoin="round" stroke-width="3"/>
  <path id="Pfad_122" data-name="Pfad 122" d="M22.4,105.3H19c-2,5.8-5.5,13.5-11,18.1H33.4c-5.5-4.5-9-12.2-11-18.1Z" fill="none" stroke="#fff" stroke-linecap="round" stroke-linejoin="round" stroke-width="3"/>
  <path id="Pfad_123" data-name="Pfad 123" d="M22.7,123.5H18.8c-2.2,6.6-6.2,15.3-12.4,20.5H35c-6.1-5.3-10.1-14-12.3-20.5Z" fill="none" stroke="#fff" stroke-linecap="round" stroke-linejoin="round" stroke-width="3"/>
  <line id="Linie_23" data-name="Linie 23" y2="25.8" transform="translate(20.7 138.2)" fill="none" stroke="#fff" stroke-linecap="round" stroke-linejoin="round" stroke-width="3"/>
  <path id="Pfad_124" data-name="Pfad 124" d="M46.4,79.4c-.8,3.3-3.5,12.2-8.9,16.7H55.3C49.9,91.6,47.2,82.7,46.4,79.4Z" fill="none" stroke="#fff" stroke-linecap="round" stroke-linejoin="round" stroke-width="3"/>
  <path id="Pfad_125" data-name="Pfad 125" d="M54,108.2a44.872,44.872,0,0,1-6.2-12.1h-3c-1.7,5-4.7,11.6-9.4,15.5H52.7" fill="none" stroke="#fff" stroke-linecap="round" stroke-linejoin="round" stroke-width="3"/>
  <path id="Pfad_126" data-name="Pfad 126" d="M50.7,118.1a61.646,61.646,0,0,1-2.6-6.4H44.6c-2,5.8-5.5,13.5-11,18.1H46.3" fill="none" stroke="#fff" stroke-linecap="round" stroke-linejoin="round" stroke-width="3"/>
  <path id="Pfad_127" data-name="Pfad 127" d="M175.7,73.1c-.8,3.3-3.5,12.2-8.9,16.7h17.8C179.2,85.3,176.6,76.5,175.7,73.1Z" fill="none" stroke="#fff" stroke-linecap="round" stroke-linejoin="round" stroke-width="3"/>
  <path id="Pfad_128" data-name="Pfad 128" d="M177.2,89.8h-2.9c-1.7,5-4.7,11.6-9.4,15.5h21.8c-4.8-3.9-7.8-10.5-9.5-15.5Z" fill="none" stroke="#fff" stroke-linecap="round" stroke-linejoin="round" stroke-width="3"/>
  <path id="Pfad_129" data-name="Pfad 129" d="M177.4,105.3H174c-2,5.8-5.5,13.5-11,18.1h25.4c-5.5-4.5-9-12.2-11-18.1Z" fill="none" stroke="#fff" stroke-linecap="round" stroke-linejoin="round" stroke-width="3"/>
  <path id="Pfad_130" data-name="Pfad 130" d="M177.7,123.5h-3.9c-2.2,6.6-6.2,15.3-12.4,20.5H190c-6.1-5.3-10.1-14-12.3-20.5Z" fill="none" stroke="#fff" stroke-linecap="round" stroke-linejoin="round" stroke-width="3"/>
  <line id="Linie_24" data-name="Linie 24" y2="25.8" transform="translate(175.7 138.2)" fill="none" stroke="#fff" stroke-linecap="round" stroke-linejoin="round" stroke-width="3"/>
  <path id="Pfad_131" data-name="Pfad 131" d="M150.5,79.4c.8,3.3,3.5,12.2,8.9,16.7H141.6C147,91.6,149.6,82.7,150.5,79.4Z" fill="none" stroke="#fff" stroke-linecap="round" stroke-linejoin="round" stroke-width="3"/>
  <path id="Pfad_132" data-name="Pfad 132" d="M142.8,108.2A44.872,44.872,0,0,0,149,96.1h2.9c1.7,5,4.7,11.6,9.4,15.5H144" fill="none" stroke="#fff" stroke-linecap="round" stroke-linejoin="round" stroke-width="3"/>
  <path id="Pfad_133" data-name="Pfad 133" d="M146.2,118.1a61.648,61.648,0,0,0,2.6-6.4h3.4c2,5.8,5.5,13.5,11,18.1H150.5" fill="none" stroke="#fff" stroke-linecap="round" stroke-linejoin="round" stroke-width="3"/>
  <path id="Pfad_134" data-name="Pfad 134" d="M134.7,58a13.5,13.5,0,1,0-23.2-9.4H75.8" fill="none" stroke="#fff" stroke-linecap="round" stroke-linejoin="round" stroke-width="3"/>
  <path id="Pfad_135" data-name="Pfad 135" d="M138.5,52a7.441,7.441,0,0,1,4.4-1.4,7.6,7.6,0,0,1,7.6,7.6,7.845,7.845,0,0,1-2.1,5.3h14.4" fill="none" stroke="#fff" stroke-linecap="round" stroke-linejoin="round" stroke-width="3"/>
  <path id="Pfad_136" data-name="Pfad 136" d="M154.7,28.5l2.3,4.2,4.2,2.3L157,37.3l-2.3,4.3-2.3-4.3L148.1,35l4.3-2.3Z" fill="none" stroke="#fff" stroke-linecap="round" stroke-linejoin="round" stroke-width="3"/>
  <path id="Pfad_137" data-name="Pfad 137" d="M121,21.7l.7,1.3c0,.1.1.1.2.1l1.3.7c.3.1.3.5,0,.7l-1.3.7c-.1,0-.1.1-.2.1l-.7,1.3a.385.385,0,0,1-.7,0l-.7-1.3c0-.1-.1-.1-.2-.1l-1.3-.7c-.3-.1-.3-.5,0-.7l1.3-.7c.1,0,.1-.1.2-.1l.7-1.3A.483.483,0,0,1,121,21.7Z" fill="#fff"/>
  <path id="Pfad_138" data-name="Pfad 138" d="M118.4,56.6l.9,1.7c.1.1.1.2.2.2l1.7.9a.562.562,0,0,1,0,.9l-1.7.9a.215.215,0,0,0-.2.2l-.9,1.7a.563.563,0,0,1-.9,0l-.9-1.7c-.1-.1-.1-.2-.2-.2l-1.7-.9a.562.562,0,0,1,0-.9l1.7-.9a.215.215,0,0,0,.2-.2l.9-1.7A.488.488,0,0,1,118.4,56.6Z" fill="#fff"/>
  <path id="Pfad_139" data-name="Pfad 139" d="M169.4,50.8l.7,1.4c0,.1.1.1.2.2l1.4.7a.385.385,0,0,1,0,.7l-1.4.7c-.1,0-.1.1-.2.2l-.7,1.4a.385.385,0,0,1-.7,0l-.7-1.4c0-.1-.1-.1-.2-.2l-1.4-.7a.385.385,0,0,1,0-.7l1.4-.7c.1,0,.1-.1.2-.2l.7-1.4C168.8,50.5,169.2,50.5,169.4,50.8Z" fill="#fff"/>
  <path id="Pfad_140" data-name="Pfad 140" d="M84.1,13.4l1.2,2.1.2.2,2.1,1.2a.654.654,0,0,1,0,1.1l-2.1,1.2c-.1.1-.2.1-.2.2l-1.2,2.1a.654.654,0,0,1-1.1,0l-1.2-2.1-.2-.2L79.5,18a.654.654,0,0,1,0-1.1l2.1-1.2c.1-.1.2-.1.2-.2L83,13.4A.591.591,0,0,1,84.1,13.4Z" fill="#fff"/>
  <path id="Pfad_141" data-name="Pfad 141" d="M138.9,12.4l.9,1.7.2.2,1.7.9a.562.562,0,0,1,0,.9L140,17c-.1,0-.1.1-.2.2l-.9,1.7a.562.562,0,0,1-.9,0l-.9-1.7-.2-.2-1.7-.9a.562.562,0,0,1,0-.9l1.7-.9.2-.2.9-1.7A.487.487,0,0,1,138.9,12.4Z" fill="#fff"/>
  <path id="Pfad_142" data-name="Pfad 142" d="M94.5,30l.9,1.7.2.2,1.7.9a.562.562,0,0,1,0,.9l-1.7.9a.215.215,0,0,0-.2.2l-.9,1.7a.563.563,0,0,1-.9,0l-.9-1.7c-.1-.1-.1-.2-.2-.2l-1.7-.9a.562.562,0,0,1,0-.9l1.7-.9a.215.215,0,0,0,.2-.2l.9-1.7A.488.488,0,0,1,94.5,30Z" fill="#fff"/>
  <path id="Pfad_143" data-name="Pfad 143" d="M62.2,19.9l2.4,4.3,4.3,2.4-4.3,2.3-2.4,4.4-2.4-4.4-4.3-2.3,4.3-2.4Z" fill="none" stroke="#fff" stroke-linecap="round" stroke-linejoin="round" stroke-width="3"/>
  <path id="Pfad_144" data-name="Pfad 144" d="M109.5,1.5l2.1,3.7,3.7,2.1-3.7,2-2.1,3.8-2-3.8-3.7-2,3.7-2.1Z" fill="none" stroke="#fff" stroke-linecap="round" stroke-linejoin="round" stroke-width="3"/>
  <path id="Pfad_145" data-name="Pfad 145" d="M62.7,55.7A26.546,26.546,0,0,1,36.2,29.2a26.028,26.028,0,0,1,1.7-9.3A24.911,24.911,0,0,0,24.7,42,25.225,25.225,0,0,0,72.1,54a26.576,26.576,0,0,1-9.4,1.7Z" fill="none" stroke="#fff" stroke-linecap="round" stroke-linejoin="round" stroke-width="3"/>
  <path id="Pfad_146" data-name="Pfad 146" d="M46.4,59.9S60.9,64.1,72.1,54" fill="none" stroke="#fff" stroke-linecap="round" stroke-linejoin="round" stroke-width="3"/>
  <path id="Pfad_147" data-name="Pfad 147" d="M31.6,36.8s-.7-10.2,6.3-17" fill="none" stroke="#fff" stroke-linecap="round" stroke-linejoin="round" stroke-width="3"/>
  <path id="Pfad_148" data-name="Pfad 148" d="M33.2,42.2a1.6,1.6,0,1,1-1.6-1.6A1.58,1.58,0,0,1,33.2,42.2Z" fill="#fff"/>
  <path id="Pfad_149" data-name="Pfad 149" d="M34.8,47.3a1.6,1.6,0,1,1-1.6-1.6A1.645,1.645,0,0,1,34.8,47.3Z" fill="#fff"/>
  <line id="Linie_25" data-name="Linie 25" x2="193.7" transform="translate(1.5 164)" fill="none" stroke="#fff" stroke-linecap="round" stroke-linejoin="round" stroke-width="3"/>
  <line id="Linie_26" data-name="Linie 26" x2="193.7" transform="translate(1.5 189.4)" fill="none" stroke="#fff" stroke-linecap="round" stroke-linejoin="round" stroke-width="3"/>
  <line id="Linie_27" data-name="Linie 27" x2="19.2" transform="translate(1.5 172.5)" fill="none" stroke="#fff" stroke-linecap="round" stroke-linejoin="round" stroke-width="3"/>
  <line id="Linie_28" data-name="Linie 28" x2="19.2" transform="translate(175.7 172.5)" fill="none" stroke="#fff" stroke-linecap="round" stroke-linejoin="round" stroke-width="3"/>
  <line id="Linie_29" data-name="Linie 29" x2="19.2" transform="translate(1.5 180.9)" fill="none" stroke="#fff" stroke-linecap="round" stroke-linejoin="round" stroke-width="3"/>
  <line id="Linie_30" data-name="Linie 30" x2="19.2" transform="translate(175.7 180.9)" fill="none" stroke="#fff" stroke-linecap="round" stroke-linejoin="round" stroke-width="3"/>
  <path id="Pfad_150" data-name="Pfad 150" d="M50.8,189.4h95A25.884,25.884,0,0,1,120,215.3H76.7a25.905,25.905,0,0,1-25.9-25.9Z" fill="none" stroke="#fff" stroke-linecap="round" stroke-linejoin="round" stroke-width="3"/>
  <g id="Gruppe_90" data-name="Gruppe 90">
    <path id="Pfad_151" data-name="Pfad 151" d="M35.7,177.8a3.612,3.612,0,0,1,.7,2.4,4.086,4.086,0,0,1-1.5,3.6,5.986,5.986,0,0,1-3.5,1H26a.975.975,0,0,1-.9-.4,1.8,1.8,0,0,1-.4-.9V170.9a.975.975,0,0,1,.4-.9,1.222,1.222,0,0,1,.9-.4h5.5c2.8,0,4.1,1.3,4.1,3.9a3.1,3.1,0,0,1-.5,1.7,3.745,3.745,0,0,1-1.3,1.2A4.5,4.5,0,0,1,35.7,177.8Zm-3.3-5.2a1.7,1.7,0,0,0-1.3-.4H27.5v3.4h3.7a1.5,1.5,0,0,0,1.1-.4,1.656,1.656,0,0,0,.5-1.2A1.955,1.955,0,0,0,32.4,172.6Zm.7,9.2a2.111,2.111,0,0,0,.6-1.6c0-.9-.2-1.4-.7-1.7a3.064,3.064,0,0,0-1.7-.4H27.5v4.2h3.9A2.311,2.311,0,0,0,33.1,181.8Z" fill="#fff"/>
    <path id="Pfad_152" data-name="Pfad 152" d="M55.7,183.2a1.421,1.421,0,0,1,.2.6.908.908,0,0,1-.3.7,1.159,1.159,0,0,1-1,.4,3.553,3.553,0,0,1-1-.2c-1-.6-1.6-1.8-1.6-3.6a1.656,1.656,0,0,0-.5-1.2,2.07,2.07,0,0,0-1.5-.5H46v4.2a1.689,1.689,0,0,1-.3,1,1.235,1.235,0,0,1-.8.4,1.5,1.5,0,0,1-1.1-.4,1.382,1.382,0,0,1-.5-.9V171.1a.975.975,0,0,1,.4-.9,1.222,1.222,0,0,1,.9-.4h6.3a3.7,3.7,0,0,1,2.1.6,4.363,4.363,0,0,1,1.6,1.7,4.751,4.751,0,0,1,.6,2.4,4.2,4.2,0,0,1-.6,2.1,4.629,4.629,0,0,1-1.5,1.6,3.362,3.362,0,0,1,1.5,2.6c0,.2.1.5.1.7a5.628,5.628,0,0,0,.2,1,.781.781,0,0,0,.4.4C55.5,182.8,55.6,183,55.7,183.2Zm-4.1-6.5a4.372,4.372,0,0,0,.6-1,2.953,2.953,0,0,0,.2-1.3,3.6,3.6,0,0,0-.2-1.1,2.407,2.407,0,0,0-.6-.8,1.136,1.136,0,0,0-.8-.3H46v4.9h4.8A2.993,2.993,0,0,0,51.6,176.7Z" fill="#fff"/>
    <path id="Pfad_153" data-name="Pfad 153" d="M74.7,183.7a.975.975,0,0,1-.4.9,1.234,1.234,0,0,1-.8.4,1.445,1.445,0,0,1-.7-.2,1.794,1.794,0,0,1-.5-.7l-1.1-2.6H64.7l-1.1,2.7a1.024,1.024,0,0,1-.5.6,1.445,1.445,0,0,1-.7.2,1.222,1.222,0,0,1-.9-.3,1.135,1.135,0,0,1-.3-.8.6.6,0,0,1,.1-.4l5.4-13a1.794,1.794,0,0,1,.5-.7,1.077,1.077,0,0,1,.8-.2,1.445,1.445,0,0,1,.7.2,2.651,2.651,0,0,1,.5.6l5.4,12.8A4.332,4.332,0,0,1,74.7,183.7Zm-9-4.8h4.4l-2.2-5.1Z" fill="#fff"/>
    <path id="Pfad_154" data-name="Pfad 154" d="M92.9,170a1.528,1.528,0,0,1,.4,1v12.6a.975.975,0,0,1-.4.9,1.777,1.777,0,0,1-1,.4.975.975,0,0,1-.9-.4,1.8,1.8,0,0,1-.4-.9v-5.1H83.7v5.1a.975.975,0,0,1-.4.9,1.45,1.45,0,0,1-2,0,1.222,1.222,0,0,1-.4-.9V171a.975.975,0,0,1,.4-.9,1.284,1.284,0,0,1,1-.4.975.975,0,0,1,.9.4,1.222,1.222,0,0,1,.4.9v5h6.9v-5a.975.975,0,0,1,.4-.9,1.284,1.284,0,0,1,1-.4A.905.905,0,0,1,92.9,170Z" fill="#fff"/>
    <path id="Pfad_155" data-name="Pfad 155" d="M115.1,170a1.222,1.222,0,0,1,.4.9v12.6a.975.975,0,0,1-.4.9,1.159,1.159,0,0,1-1,.4,1.367,1.367,0,0,1-1.4-1.4v-8.8l-3.6,5.5a1,1,0,0,1-.5.4.661.661,0,0,1-.6.1,1.268,1.268,0,0,1-.6-.1,2.182,2.182,0,0,1-.5-.4l-3.6-5.7v9a1.689,1.689,0,0,1-.3,1,1.268,1.268,0,0,1-.9.4.975.975,0,0,1-.9-.4,1.613,1.613,0,0,1-.3-.9V170.9a.975.975,0,0,1,.4-.9,1.284,1.284,0,0,1,1-.4,2.544,2.544,0,0,1,.7.2,2.182,2.182,0,0,1,.5.4l4.7,7.3,4.9-7.3a1,1,0,0,1,.5-.4,1.421,1.421,0,0,1,.6-.2A1.222,1.222,0,0,1,115.1,170Z" fill="#fff"/>
    <path id="Pfad_156" data-name="Pfad 156" d="M125.2,184.7a7.552,7.552,0,0,1-2.3-1.3,1.425,1.425,0,0,1-.6-1.2,1.221,1.221,0,0,1,.4-.9.975.975,0,0,1,.9-.4.908.908,0,0,1,.7.3,5.047,5.047,0,0,0,1.7,1,6.014,6.014,0,0,0,2,.3,4.648,4.648,0,0,0,2.1-.5c.6-.4.9-.8.9-1.3a1.551,1.551,0,0,0-.9-1.5,7.239,7.239,0,0,0-2.8-.8c-3.2-.5-4.8-1.9-4.8-4.4a3.986,3.986,0,0,1,.7-2.4,3.823,3.823,0,0,1,2-1.5,8.21,8.21,0,0,1,2.8-.5,7.457,7.457,0,0,1,2.6.4,5.474,5.474,0,0,1,2,1.1,1.426,1.426,0,0,1,.6,1.2,1.222,1.222,0,0,1-.4.9,1.086,1.086,0,0,1-.9.4,1.422,1.422,0,0,1-.6-.2,4.771,4.771,0,0,0-1.6-.8,7.422,7.422,0,0,0-1.8-.4,4.064,4.064,0,0,0-2.1.5,1.561,1.561,0,0,0-.8,1.3,1.6,1.6,0,0,0,.8,1.4,7.361,7.361,0,0,0,2.4.8,16.007,16.007,0,0,1,3,.8,3.907,3.907,0,0,1,1.7,1.4,4.143,4.143,0,0,1,.6,2.3,4.069,4.069,0,0,1-.8,2.4,4.913,4.913,0,0,1-2.1,1.6,6.71,6.71,0,0,1-2.8.6C126.9,185.1,126,184.9,125.2,184.7Z" fill="#fff"/>
    <path id="Pfad_157" data-name="Pfad 157" d="M150,182.7a1.086,1.086,0,0,1,.4.9.975.975,0,0,1-.4.9,1.613,1.613,0,0,1-.9.3h-7.3a.975.975,0,0,1-.9-.4,1.8,1.8,0,0,1-.4-.9V170.9a.975.975,0,0,1,.4-.9,1.222,1.222,0,0,1,.9-.4h7.3a.975.975,0,0,1,.9.4,1.489,1.489,0,0,1,.4.9.975.975,0,0,1-.4.9,1.493,1.493,0,0,1-1,.3h-5.9v3.7H148a1.273,1.273,0,0,1,.9,2.2,1.493,1.493,0,0,1-1,.3H143v4h5.9A1.82,1.82,0,0,1,150,182.7Z" fill="#fff"/>
    <path id="Pfad_158" data-name="Pfad 158" d="M166.8,182.7a1.086,1.086,0,0,1,.4.9.975.975,0,0,1-.4.9,1.613,1.613,0,0,1-.9.3h-7.3a.975.975,0,0,1-.9-.4,1.8,1.8,0,0,1-.4-.9V170.9a.975.975,0,0,1,.4-.9,1.222,1.222,0,0,1,.9-.4h7.3a.975.975,0,0,1,.9.4,1.489,1.489,0,0,1,.4.9.975.975,0,0,1-.4.9,1.493,1.493,0,0,1-1,.3H160v3.7h4.9a1.273,1.273,0,0,1,.9,2.2,1.493,1.493,0,0,1-1,.3H160v4h5.9A1.49,1.49,0,0,1,166.8,182.7Z" fill="#fff"/>
  </g>
  <g id="Gruppe_91" data-name="Gruppe 91">
    <path id="Pfad_159" data-name="Pfad 159" d="M77.7,204.5a.864.864,0,0,1,.3.6.713.713,0,0,1-.3.6.735.735,0,0,1-.6.2h-5a.6.6,0,0,1-.6-.3.864.864,0,0,1-.3-.6v-8.6a.6.6,0,0,1,.3-.6c.2-.1.4-.3.6-.3h5a.845.845,0,0,1,.6.2.864.864,0,0,1,.3.6.713.713,0,0,1-.3.6.844.844,0,0,1-.7.2H73v2.5h3.4a.845.845,0,0,1,.6.2.864.864,0,0,1,.3.6.713.713,0,0,1-.3.6.844.844,0,0,1-.7.2H73V204h4A4.233,4.233,0,0,1,77.7,204.5Z" fill="#fff"/>
    <path id="Pfad_160" data-name="Pfad 160" d="M77.8,204.3a.755.755,0,0,1,.4-.7.6.6,0,0,1,.4-.1.864.864,0,0,1,.6.3,5.5,5.5,0,0,0,.9.7,2.165,2.165,0,0,0,1.2.2q1.2,0,1.2-.9a.755.755,0,0,0-.4-.7,8.336,8.336,0,0,0-1.2-.4,10.865,10.865,0,0,1-1.4-.5,2.178,2.178,0,0,1-.9-.7,1.844,1.844,0,0,1-.4-1.3,1.594,1.594,0,0,1,.4-1.2,3.134,3.134,0,0,1,1.1-.8,3.529,3.529,0,0,1,1.4-.3,4.013,4.013,0,0,1,1.5.3,3.6,3.6,0,0,1,1.2.8c.1.2.2.3.2.5a.864.864,0,0,1-.3.6.725.725,0,0,1-1,0,1.794,1.794,0,0,0-.7-.5,2.958,2.958,0,0,0-1-.2c-.8,0-1.1.3-1.1.8a.764.764,0,0,0,.2.5,2.186,2.186,0,0,0,.5.3,4.649,4.649,0,0,0,.9.3,3.922,3.922,0,0,1,1.3.5,3.114,3.114,0,0,1,.9.7,2.5,2.5,0,0,1,.4,1.3,2.01,2.01,0,0,1-.4,1.3,2.836,2.836,0,0,1-1.1.8,3.529,3.529,0,0,1-1.4.3,4.844,4.844,0,0,1-1.8-.3,3.007,3.007,0,0,1-1.4-1.1A.551.551,0,0,1,77.8,204.3Z" fill="#fff"/>
  </g>
  <g id="Gruppe_92" data-name="Gruppe 92">
    <path id="Pfad_161" data-name="Pfad 161" d="M88.7,204.5a.764.764,0,0,1,.2.5.755.755,0,0,1-.4.7,1.689,1.689,0,0,1-1,.3,2.934,2.934,0,0,1-1.6-.4,1.932,1.932,0,0,1-.6-1.7v-4.1h-.7a1.421,1.421,0,0,1-.6-.2c-.2-.1-.2-.4-.2-.6a1.421,1.421,0,0,1,.2-.6c.1-.2.4-.2.6-.2h.7v-1a.6.6,0,0,1,.3-.6.864.864,0,0,1,.6-.3.713.713,0,0,1,.6.3.864.864,0,0,1,.3.6v1h1.1a1.421,1.421,0,0,1,.6.2.735.735,0,0,1,.2.6,1.421,1.421,0,0,1-.2.6.735.735,0,0,1-.6.2H87.1v4a.764.764,0,0,0,.2.5.6.6,0,0,0,.4.1.367.367,0,0,0,.3-.1c.1,0,.2-.1.3-.1C88.5,204.3,88.6,204.3,88.7,204.5Z" fill="#fff"/>
  </g>
  <g id="Gruppe_93" data-name="Gruppe 93">
    <path id="Pfad_162" data-name="Pfad 162" d="M96.5,195.2a.908.908,0,0,1,.3.7v9.2a.6.6,0,0,1-.3.6.864.864,0,0,1-.6.3.713.713,0,0,1-.6-.3.864.864,0,0,1-.3-.6,2.552,2.552,0,0,1-1,.7,3.079,3.079,0,0,1-1.3.3,4.136,4.136,0,0,1-1.9-.5,3.182,3.182,0,0,1-1.3-1.5,4.66,4.66,0,0,1,0-4.2,4.708,4.708,0,0,1,1.3-1.5,2.9,2.9,0,0,1,1.8-.5,2.768,2.768,0,0,1,1.3.3,4.129,4.129,0,0,1,1.1.7V196a.6.6,0,0,1,.3-.6.864.864,0,0,1,.6-.3C96.1,195.1,96.4,195,96.5,195.2Zm-2,8.6a3,3,0,0,0,0-3.6,1.865,1.865,0,0,0-1.6-.7,1.99,1.99,0,0,0-1.6.7,3,3,0,0,0,0,3.6,1.865,1.865,0,0,0,1.6.7A2.575,2.575,0,0,0,94.5,203.8Z" fill="#fff"/>
    <path id="Pfad_163" data-name="Pfad 163" d="M103.6,195.8a.864.864,0,0,1,.3.6V205a.6.6,0,0,1-.3.6.967.967,0,0,1-1.4,0,.864.864,0,0,1-.3-.6v-7l-.9.6a.749.749,0,0,1-.5.1.713.713,0,0,1-.6-.3c-.1-.2-.3-.4-.3-.6s0-.3.1-.4l.3-.3,2.3-1.3a1.268,1.268,0,0,1,.6-.1C103.3,195.5,103.5,195.6,103.6,195.8Z" fill="#fff"/>
    <path id="Pfad_164" data-name="Pfad 164" d="M109.7,195.9a3.491,3.491,0,0,1,1.2,1.5,4.477,4.477,0,0,1,.4,2,7.508,7.508,0,0,1-.4,2.4,6.948,6.948,0,0,1-1.4,2.5,6.25,6.25,0,0,1-2.7,1.7h-.3a.845.845,0,0,1-.6-.2.6.6,0,0,1-.3-.6,1.421,1.421,0,0,1,.2-.6.918.918,0,0,1,.6-.4,4.248,4.248,0,0,0,1.7-1,6.1,6.1,0,0,0,1.2-1.6,2.716,2.716,0,0,1-1.7.6,2.976,2.976,0,0,1-1.5-.5,3.039,3.039,0,0,1-1.2-1.3,3.686,3.686,0,0,1-.5-1.7,3.371,3.371,0,0,1,.5-1.7,3.25,3.25,0,0,1,1.3-1.3,3.371,3.371,0,0,1,1.7-.5A3.594,3.594,0,0,1,109.7,195.9Zm-.6,4.2a1.94,1.94,0,0,0,0-2.6,1.69,1.69,0,0,0-2.4,0,1.94,1.94,0,0,0,0,2.6,1.69,1.69,0,0,0,2.4,0Z" fill="#fff"/>
    <path id="Pfad_165" data-name="Pfad 165" d="M118.4,195.8a.864.864,0,0,1,.3.6.6.6,0,0,1-.1.4l-3.9,8.7a1.38,1.38,0,0,1-.3.4.749.749,0,0,1-.5.1.713.713,0,0,1-.6-.3.864.864,0,0,1-.3-.6.6.6,0,0,1,.1-.4l3.5-7.6h-4a1.421,1.421,0,0,1-.6-.2c-.2-.1-.2-.4-.2-.6a1.421,1.421,0,0,1,.2-.6c.1-.2.4-.2.6-.2h5.2A.864.864,0,0,1,118.4,195.8Z" fill="#fff"/>
    <path id="Pfad_166" data-name="Pfad 166" d="M124.1,195.9a3.491,3.491,0,0,1,1.2,1.5,4.477,4.477,0,0,1,.4,2,7.508,7.508,0,0,1-.4,2.4,6.948,6.948,0,0,1-1.4,2.5,6.25,6.25,0,0,1-2.7,1.7h-.3a.845.845,0,0,1-.6-.2.6.6,0,0,1-.3-.6,1.421,1.421,0,0,1,.2-.6.918.918,0,0,1,.6-.4,4.248,4.248,0,0,0,1.7-1,6.1,6.1,0,0,0,1.2-1.6,2.716,2.716,0,0,1-1.7.6,2.976,2.976,0,0,1-1.5-.5,3.039,3.039,0,0,1-1.2-1.3,3.14,3.14,0,0,1,0-3.4,3.25,3.25,0,0,1,1.3-1.3,3.371,3.371,0,0,1,1.7-.5A4.492,4.492,0,0,1,124.1,195.9Zm-.7,4.2a1.94,1.94,0,0,0,0-2.6,1.69,1.69,0,0,0-2.4,0,1.94,1.94,0,0,0,0,2.6,1.69,1.69,0,0,0,2.4,0Z" fill="#fff"/>
  </g>
</svg>
